<?xml version="1.0" encoding="UTF-8"?>
<svg id="Layer_2" data-name="Layer 2" xmlns="http://www.w3.org/2000/svg" viewBox="0 0 1276.04 194.82">
  <defs>
    <style>
      .cls-1 {
        fill: #ebe1cd;
      }

      .cls-2 {
        fill: #c29559;
        fill-rule: evenodd;
      }
    </style>
  </defs>
  <g id="Layer_1-2" data-name="Layer 1">
    <g>
      <g>
        <path class="cls-1" d="M336.62,151.49c-5.69-.46-11.83-.7-18.44-.7s-13.69.23-21.23.7v-58.64c0-4.41-1.39-7.37-4.18-8.87-1.39-.81-2.78-1.22-4.18-1.22-5.57,0-8.35,3.37-8.35,10.09v28.54c0,3.83.58,7.28,1.74,10.35,1.16,3.08,3.94,5.19,8.35,6.35l-3.65,13.4-9.57-.7c-6.38-.58-12.47-.87-18.27-.87-4.76,0-10.9.52-18.44,1.57l-3.65-13.4c4.76-1.85,7.66-5.22,8.7-10.09.93-4.06,1.39-9.11,1.39-15.14v-3.65l.35-17.57-.17-9.57-.17-2.78v-1.57c0-4.64-.5-8.55-1.48-11.75-.99-3.19-3.8-5.42-8.44-6.7l3.65-13.4c13.57-.46,25.46-2.9,35.67-7.31l4,4v32.19c6.03-8.93,13.8-13.4,23.32-13.4,2.44,0,5.62.55,9.57,1.65,3.94,1.1,7.74,3.89,11.4,8.35,3.65,4.47,5.48,10.12,5.48,16.96v30.45c0,4.18.46,8.09,1.39,11.75.93,3.65,3.89,6.18,8.87,7.57l-3.65,13.4Z"/>
        <path class="cls-1" d="M388.65,153.93h-2.09c-11.14,0-21.17-3.57-30.1-10.7-8.93-7.13-13.75-18.18-14.44-33.15.23-15.89,4.58-27.9,13.05-36.02,8.7-8.47,19.25-12.7,31.67-12.7,11.6,0,22.04,4,31.32,12.01,9.28,8,13.92,20.42,13.92,37.24-.81,13.69-5.45,24.22-13.92,31.58-8.47,7.37-18.27,11.28-29.41,11.75ZM386.91,134.79c3.83,0,6.64-2.78,8.44-8.35,1.8-5.57,2.7-11.95,2.7-19.14-.12-7.19-1.13-13.54-3.04-19.05-1.91-5.51-4.78-8.38-8.61-8.61-3.48.23-6.12,3.1-7.92,8.61-1.8,5.51-2.7,11.86-2.7,19.05s.93,13.57,2.78,19.14c1.85,5.57,4.64,8.35,8.35,8.35Z"/>
        <path class="cls-1" d="M584.74,151.49c-5.57-.46-11.66-.7-18.27-.7s-13.69.23-21.23.7c0-19.6-.06-39.15-.17-58.64-.23-4.52-1.68-7.54-4.35-9.05-1.28-.81-2.61-1.22-4-1.22-5.22,0-8,3.37-8.35,10.09v26.62c0,4.06.49,7.86,1.48,11.4.98,3.54,3.92,6,8.79,7.4l-3.65,13.4c-5.69-.46-11.83-.7-18.44-.7s-13.69.23-21.23.7v-58.64c-.23-4.52-1.68-7.54-4.35-9.05-1.39-.81-2.78-1.22-4.18-1.22-5.57,0-8.35,3.42-8.35,10.27l.17,28.54c0,3.83.58,7.28,1.74,10.35,1.16,3.08,3.94,5.19,8.35,6.35l-3.65,13.4-9.74-.7c-6.26-.58-12.3-.87-18.1-.87-4.76,0-10.9.52-18.44,1.57l-3.65-13.4c4.41-1.74,7.19-4.58,8.35-8.53,1.16-3.94,1.74-8.81,1.74-14.62v-19.66c0-3.48-.46-6.96-1.39-10.44-.93-3.48-3.83-5.92-8.7-7.31l3.83-13.57c3.94.46,7.83.7,11.66.7,8.47,0,16.47-1.1,24.01-3.31l3.83,4v9.22c6.15-8.81,14.27-13.22,24.36-13.22,3.71,0,7.92.96,12.61,2.87,4.7,1.91,8.44,5.37,11.22,10.35,3.59-5.45,7.51-9.02,11.75-10.7,4.23-1.68,8.61-2.52,13.14-2.52,6.96,0,13.05,2.35,18.27,7.05,5.22,4.7,8,11.34,8.35,19.92v29.75c0,4.52.49,8.64,1.48,12.35.98,3.71,3.97,6.26,8.96,7.66l-3.83,13.4Z"/>
        <path class="cls-1" d="M633.29,153.75l-3.65-.17c-10.33-1.16-18.85-4.93-25.58-11.31-6.73-6.38-11.14-14.56-13.22-24.53-.58-3.25-.87-6.44-.87-9.57,0-10.55,3.74-20.71,11.22-30.45,7.48-9.74,19.05-15.2,34.71-16.36h2.26c16.01,0,27.61,7.25,34.8,21.75,1.04,2.44,1.57,4.52,1.57,6.26,0,3.6-1.86,6.15-5.57,7.66-7.19,2.44-14.44,4.82-21.75,7.13l-16.18,5.22c4.18,7.77,9.86,11.83,17.05,12.18h1.91c8.35,0,15.37-4.46,21.05-13.4l7.66,3.13c-1.51,11.95-6.55,22.21-15.14,30.8-7.89,7.77-17.98,11.66-30.28,11.66ZM625.46,96.33l7.48-2.44c3.13-.81,5.05-1.62,5.74-2.44.35-.35.52-.87.52-1.57,0-.81-.23-1.8-.7-2.96-1.28-3.01-2.96-5.51-5.05-7.48-1.74-1.62-3.42-2.44-5.05-2.44l-1.22.17c-2.78,1.16-4.18,3.89-4.18,8.18,0,3.25.81,6.9,2.44,10.96Z"/>
        <path class="cls-1" d="M743.78,194.82c-11.6,0-20.24-3.59-25.93-10.79-3.48-4.29-5.28-8.93-5.39-13.92,0-5.8,2.67-10.55,8-14.27,3.13-1.62,6.09-2.44,8.87-2.44s5.22.76,7.66,2.26c4.18,2.55,6.26,6.26,6.26,11.14l-.35,3.13c-.58,2.55-2.21,5.05-4.87,7.48l.35.87c8.35-1.85,12.53-6.84,12.53-14.96,0-4.06-1.57-7.71-4.7-10.96-2.67-2.78-6.55-4.18-11.66-4.18-4.64,0-10.09,1.16-16.36,3.48-7.77,2.78-13.98,4.18-18.62,4.18-3.25,0-6.38-.7-9.4-2.09-4.99-2.78-8.12-6.79-9.4-12.01-.35-1.51-.52-3.02-.52-4.52,0-3.48,1.16-7.19,3.48-11.14,2.32-3.94,6.96-6.55,13.92-7.83-6.61-5.22-10.15-12.35-10.61-21.4.23-11.6,4.67-20.42,13.31-26.45,8.64-6.03,19.28-9.05,31.93-9.05,2.2,0,4.41.12,6.61.35-.35-2.2-.52-4.29-.52-6.26,0-6.96,2.09-12.99,6.26-18.1,4.87-5.8,11.48-8.7,19.84-8.7,7.31,0,13.11,2.61,17.4,7.83,3.13,4.06,4.7,8.35,4.7,12.88,0,.35-.09,1.89-.26,4.61-.17,2.73-2.7,5.77-7.57,9.13-3.02,1.51-5.92,2.26-8.7,2.26s-5.39-.75-7.83-2.26c-3.48-2.32-5.22-5.33-5.22-9.05,0-1.39.23-2.9.7-4.52-.12-.23-.29-.35-.52-.35-1.97,0-4.12,1.25-6.44,3.74-2.32,2.5-3.48,5.77-3.48,9.83v.52c8.7,2.09,15.86,5.95,21.49,11.57,5.62,5.63,8.44,12.91,8.44,21.84v.52c-.93,10.09-5.6,17.81-14.01,23.14-8.41,5.34-18.18,8.18-29.32,8.53-4.41,0-7.37.06-8.87.17-6.03.35-9.05,2.2-9.05,5.57,0,.81.44,1.68,1.31,2.61.87.93,2.17,1.39,3.92,1.39,1.62,0,5.05-.81,10.27-2.44,8.24-2.9,16.99-4.35,26.27-4.35,7.42.35,14.06,2.93,19.92,7.74,5.86,4.82,8.84,12.33,8.96,22.53-.58,8.47-3.86,15.37-9.83,20.71-5.98,5.34-13.14,8.87-21.49,10.61-3.95.93-7.77,1.39-11.48,1.39ZM732.12,113.91c3.71,0,6.47-1.83,8.27-5.48,1.8-3.65,2.7-7.74,2.7-12.27v-4.18c-.12-2.55-1.13-5.68-3.04-9.4-1.91-3.71-4.73-5.62-8.44-5.74-3.6.12-6.26,1.97-8,5.57-1.74,3.6-2.61,7.6-2.61,12.01,0,5.45.93,10.06,2.78,13.83,1.85,3.77,4.64,5.65,8.35,5.65Z"/>
        <path class="cls-1" d="M832.34,151.49c-7.66-.58-15.31-.87-22.97-.87s-15.37.29-23.14.87l-3.65-13.4c4.87-2.09,7.77-4.99,8.7-8.7.93-3.71,1.39-8.99,1.39-15.83v-18.62c0-4.06-.46-7.57-1.39-10.53-.93-2.96-3.83-5.31-8.7-7.05l3.65-13.4c3.48.23,7.02.35,10.61.35,2.32,0,5.62-.09,9.92-.26,4.29-.17,8.87-1.07,13.75-2.7l3.13,9.92,2.09-.17c5.8-7.07,12.99-10.61,21.58-10.61,7.19,0,13.57,2.55,19.14,7.66,5.8,5.57,8.7,13.75,8.7,24.53v.7c-.81,8.93-4.29,15.25-10.44,18.97-4.18,2.55-8.53,3.83-13.05,3.83-1.97,0-5.16-.52-9.57-1.57-4.41-1.04-7.83-5.16-10.27-12.35-.46-1.62-.7-3.25-.7-4.87,0-2.2.64-4.73,1.91-7.57,1.28-2.84,3.83-5.07,7.66-6.7,1.62-.7,3.31-1.04,5.05-1.04,2.67,0,5.39.99,8.18,2.96l.52-.7c-.47-2.78-2.21-4.99-5.22-6.61-1.97-1.04-4.06-1.57-6.26-1.57-1.28,0-3.22.35-5.83,1.04-2.61.7-5.37,3.48-8.27,8.35l-.35.52c-1.74,3.02-2.61,7.25-2.61,12.7v13.75c0,9.17.84,15.49,2.52,18.97,1.68,3.48,4.26,5.68,7.74,6.61l-3.83,13.4Z"/>
        <path class="cls-1" d="M923.69,153.93h-2.09c-11.14,0-21.17-3.57-30.1-10.7-8.93-7.13-13.75-18.18-14.44-33.15.23-15.89,4.58-27.9,13.05-36.02,8.7-8.47,19.25-12.7,31.67-12.7,11.6,0,22.04,4,31.32,12.01,9.28,8,13.92,20.42,13.92,37.24-.81,13.69-5.45,24.22-13.92,31.58-8.47,7.37-18.27,11.28-29.41,11.75ZM921.95,134.79c3.83,0,6.64-2.78,8.44-8.35,1.8-5.57,2.7-11.95,2.7-19.14-.12-7.19-1.13-13.54-3.04-19.05-1.91-5.51-4.79-8.38-8.61-8.61-3.48.23-6.12,3.1-7.92,8.61-1.8,5.51-2.7,11.86-2.7,19.05s.93,13.57,2.78,19.14c1.85,5.57,4.64,8.35,8.35,8.35Z"/>
        <path class="cls-1" d="M1006.17,153.93c-6.15,0-12.01-2.15-17.57-6.44-5.57-4.29-8.59-11.02-9.05-20.18l-.17-24.53.17-6.79c0-3.83-.49-7.51-1.48-11.05-.99-3.54-3.97-6-8.96-7.39l3.65-13.57c5.57,1.16,11.66,1.74,18.27,1.74s13.8-.58,21.58-1.74v58.81c0,4.41,1.39,7.37,4.18,8.87,1.39.7,2.78,1.04,4.18,1.04,5.68,0,8.53-3.31,8.53-9.92l-.17-27.32c0-4.41-.61-8.21-1.83-11.4-1.22-3.19-4.03-5.36-8.44-6.52l3.65-13.57c5.8,1.39,12.12,2.09,18.97,2.09s13.51-.64,21.05-1.91l.17,12.18c0,12.99-.12,25.52-.35,37.58l.17,3.83v2.61c0,3.48.44,6.93,1.31,10.35.87,3.42,3.74,5.89,8.61,7.4l-3.65,13.4c-6.15-1.16-12.24-1.74-18.27-1.74s-11.72.58-17.4,1.74l-3.83-4v-6.61c-6.26,8.7-14.04,13.05-23.32,13.05Z"/>
        <path class="cls-1" d="M1174.42,151.49c-5.68-.46-11.83-.7-18.44-.7s-13.69.23-21.23.7v-58.64c-.23-4.52-1.68-7.54-4.35-9.05-1.39-.81-2.78-1.22-4.18-1.22-5.57,0-8.35,3.42-8.35,10.27l.17,28.54c0,3.83.58,7.28,1.74,10.35,1.16,3.08,3.94,5.19,8.35,6.35l-3.65,13.4-9.74-.7c-6.26-.58-12.3-.87-18.1-.87-4.76,0-10.9.52-18.44,1.57l-3.65-13.4c4.41-1.74,7.19-4.58,8.35-8.53,1.16-3.94,1.74-8.81,1.74-14.62v-19.66c0-3.48-.46-6.96-1.39-10.44-.93-3.48-3.83-5.92-8.7-7.31l3.83-13.57c3.94.46,7.83.7,11.66.7,8.47,0,16.47-1.1,24.01-3.31l3.83,4v9.22c6.15-8.7,13.92-13.05,23.32-13.05,6.26,0,12.15,2.18,17.66,6.53,5.51,4.35,8.44,11.11,8.79,20.27l.17,30.97c0,4.06.49,7.86,1.48,11.4.98,3.54,3.92,6,8.79,7.4l-3.65,13.4Z"/>
        <path class="cls-1" d="M1210.09,153.93h-.7c-11.14-.7-18.73-5.33-22.79-13.92-4.06-8.58-6.09-19.08-6.09-31.49,0-.35.03-3.8.09-10.35.06-6.55,2.12-13.95,6.18-22.18,3.71-6.73,8.93-11.19,15.66-13.4,2.55-.81,5.1-1.22,7.66-1.22,9.63,0,17.28,4.52,22.97,13.57-.23-3.59-1.04-6.84-2.44-9.74-1.39-2.9-3.89-4.87-7.48-5.92l3.65-13.4c13.46-.46,25.29-2.9,35.5-7.31l3.83,4v78.3c0,3.37.46,6.7,1.39,10.01.93,3.31,3.77,5.71,8.53,7.22l-3.65,13.4c-6.15-1.16-12.24-1.74-18.27-1.74s-11.72.58-17.4,1.74l-3.83-4v-6.61c-6.38,8.7-13.98,13.05-22.79,13.05ZM1225.23,134.96c2.32,0,4.29-1.1,5.92-3.31,1.27-2.44,1.91-7.83,1.91-16.18v-22.27c0-3.25-.84-5.71-2.52-7.39-1.68-1.68-3.57-2.58-5.66-2.7-2.78.23-4.9,2.84-6.35,7.83-1.45,4.99-2.23,10.85-2.35,17.57,0,6.61.61,12.5,1.83,17.66,1.22,5.16,3.1,8.03,5.66,8.61l1.57.17Z"/>
      </g>
      <g>
        <path class="cls-1" d="M82.99,35.78c1.06,4.73,3.68,8.19,6.78,10.68,2.74,2.2,5.87,3.67,8.63,4.61,1.98.67,3.75,1.06,5.07,1.26-2.61-2.28-5.66-4.45-8.65-6.58-4.64-3.31-9.13-6.52-11.83-9.96h0ZM97.16,78.35c-.06.74-.4,1.42-1.08,1.95l-.03.02-.22.15c-.72.46-1.51.57-2.24.38-.77-.2-1.49-.71-2.06-1.48l-.21-.32c-1.2-1.95-1.35-3.59-.89-4.69.03-.08.07-.15.11-.22-.11,1.02.2,2.32,1.11,3.81l.21.32c.56.77,1.29,1.29,2.06,1.48.74.19,1.52.08,2.24-.38l.22-.15.03-.02c.33-.25.57-.54.75-.85h0ZM106.72,73c-.19.72-.66,1.32-1.45,1.65h-.03s-.23.1-.23.1c-.74.24-1.46.14-2.07-.2-.63-.36-1.16-.98-1.49-1.81l-.12-.33c-.63-2.04-.39-3.55.28-4.42.02-.03.05-.06.07-.09-.21.85-.17,1.95.24,3.28l.12.33c.32.82.85,1.45,1.49,1.81.61.34,1.33.43,2.07.2l.23-.09h.03c.36-.16.66-.37.89-.62-.01.06-.03.13-.04.19h0ZM119.28,80.27c-.84.66-1.78.98-2.67.95-.86-.03-1.67-.4-2.31-1.12l-.19-.24-.03-.04c-.63-.86-.76-1.8-.51-2.69.04-.14.09-.28.15-.42.04.54.24,1.08.62,1.6l.03.04.19.24c.64.72,1.45,1.09,2.31,1.12.89.03,1.83-.29,2.67-.95l.33-.28c1.13-1.02,1.82-2.05,2.16-2.99.05,1.29-.65,2.89-2.42,4.49l-.33.28h0ZM116.98,36.87c.48,14.64-3.48,26.89-7.47,39.21-1.06,3.27-2.12,6.55-3.09,9.87,1.48-1.89,3.14-3.84,4.52-5.36-.61-1.31-.67-2.69-.29-4.01.46-1.62,1.58-3.15,3.13-4.35h0s.08-.06.08-.06h0c2.89-2.2,5.68-2.6,7.73-1.87.94.33,1.72.89,2.31,1.62.58.73.97,1.63,1.1,2.64.29,2.24-.71,5.04-3.59,7.67-.17.15-.34.3-.52.44-1.42,1.11-3.04,1.65-4.6,1.59-1.51-.05-2.96-.67-4.11-1.87-1.77,1.97-3.92,4.54-5.51,6.74-.87,1.2-1.57,2.25-1.91,2.92-.24.95-.46,1.92-.68,2.88-.05.37-.12.72-.23,1.04-.14.66-.27,1.33-.4,1.99-.09.47-.17.94-.26,1.4,1.17-1.18,2.64-2.39,4.35-3.55,1.58-3.3,3.08-5.75,4.79-7.51,1.83-1.88,3.85-2.96,6.4-3.39,6.34-1.07,13.13,1.67,16.54,3.96.82.55,1.47,1.09,1.89,1.57.67.75.89,1.5.58,2.15-.24.5-.7.8-1.41.86-11.48,2.27-7.37,9.53-27.71,4.17-2.99,2.02-5.11,4.2-6.1,5.96-.67,5-.96,11.04-.68,16.15.37,6.71,1.54,13.14,3.21,20.13.14.57-.21,1.15-.78,1.29-.56.14-1.13-.22-1.27-.79-1.69-7.12-2.89-13.67-3.27-20.51-.05-.86-.08-1.73-.1-2.61-.05-2.05-.65-3.79-1.85-5.43-1.53-2.08-3.63-4.43-6.04-6.82-2.64.56-5.76-.13-8.73-1.47-3.75-1.69-7.32-4.45-9.36-7-2.7-3.37-4.71-5.59-5.99-7.02-1.54-1.71-2.26-2.52-1.88-3.36.19-.42.56-.64,1.07-.64.54,0,2.62.29,5.31.97,2.66.67,6,1.72,9.22,3.23,5.95,2.79,11.46,7.16,11.73,13.69,2.65,2.63,4.96,5.23,6.61,7.53.21-4.17.74-8.56,1.65-13.33.19-1.02.4-2.03.62-3.03.19-1.53-.21-3.56-1.03-5.58-.8-1.96-1.99-3.87-3.42-5.28-1.45.85-3.02,1.04-4.5.66-1.51-.39-2.92-1.36-3.98-2.83-.14-.19-.27-.38-.38-.57h0c-2.06-3.34-2.25-6.31-1.36-8.39.4-.93,1.01-1.69,1.78-2.23.76-.54,1.67-.86,2.66-.91,2.13-.12,4.62.99,6.76,3.77-.94-3.26-.43-5.8.79-7.37.56-.73,1.28-1.25,2.07-1.54.8-.3,1.67-.36,2.54-.18,1.93.4,3.92,2.02,5.15,5.07h0s.03.09.03.09h0c.07.19.14.37.2.56.38-1.2.75-2.4,1.1-3.61.86-3.78-.68-7.2-3.43-10.39-.63-.73-1.43-1.13-2.39-1.19-1.42-.09-3.96-.52-6.86-1.5-2.95-1-6.3-2.58-9.27-4.97-4.78-3.85-8.55-9.75-8.05-18.65h0c.01-.23.1-.47.27-.65.39-.44,1.06-.47,1.49-.08,2.76,2.52,6.34,4.22,9.86,5.9,7.53,3.58,14.81,7.04,14.81,17.88,2.4,2.36,4.29,4.86,5.24,7.58,1.83-7.25,3.05-14.8,2.79-23.09-.03-.89-.51-1.64-1.31-2.03-.89-.43-1.95-.96-2.32-1.17-4.86-2.61-7.91-7.05-9.54-12.1-2.04-6.35-1.82-13.69-.13-19.54.02-.36.08-.68.17-.95.13-.38.31-.69.55-.94.41-.42,1.08-.42,1.49,0,.11.12.2.25.25.4,1.12,2.84,3.46,5.81,5.91,8.93,5.16,6.56,10.79,13.71,7.86,22.44-.82,2.44-.91,2.19-.83,4.8h0ZM103.31,89.19c1.07-3.99,2.29-7.88,3.54-11.74-.13.07-.27.13-.41.19h0s-.05.02-.05.02h0c-.12.05-.27.1-.46.16-1.53.49-3.03.3-4.3-.41-.53-.3-1.02-.68-1.45-1.15.25.76.38,1.53.38,2.28,0,1.38-.43,2.68-1.37,3.77,1.57,1.61,2.87,3.7,3.73,5.83.14.35.27.7.39,1.05h0ZM115.59,31.97c2.98-7.95-2.38-14.77-7.28-21-1.61-2.04-3.17-4.03-4.42-6,.68,3.24,2.55,8.21,4.68,13.1,2.51,5.78,5.36,11.35,7.02,13.9h0ZM102.57,8.03c-.49,4.28-.19,8.89,1.15,13.05,1.6,4.97,4.71,9.27,9.77,11.47-1.82-2.96-4.5-8.23-6.84-13.62-1.65-3.79-3.14-7.66-4.07-10.9h0ZM118.5,55.53c1.05-3.38,4.51-9.52,11.42-14.85,4.63-3.57,10.82-6.8,18.9-8.63.57-.13,1.13.24,1.26.81,0,.04.02.08.02.13h0c.03.33.04.69,0,1.08-.23,3.26-2.8,8.61-7.25,13.29-4.43,4.66-10.77,8.73-18.58,9.53-1.56.16-3.18.19-4.86.06-.58-.04-1.02-.56-.97-1.15,0-.1.03-.19.06-.28h0ZM131.2,42.39c-4.64,3.58-7.6,7.48-9.27,10.55,6.05-4.15,17.54-12.15,23.67-17.82-5.97,1.81-10.71,4.43-14.4,7.27h0ZM122.9,54.86c.39-.02.79-.05,1.17-.09,7.25-.74,13.14-4.54,17.27-8.88,3.14-3.3,5.25-6.88,6.17-9.66-6.25,5.91-18.44,14.4-24.62,18.63h0ZM97.05,74.75l-.06-.08c-1.7-2.29-3.59-3.21-5.13-3.12-.59.03-1.13.22-1.57.53-.44.31-.81.76-1.04,1.32-.64,1.49-.43,3.73,1.21,6.4h0c.1.16.19.3.29.43.77,1.06,1.76,1.76,2.81,2.02,1.01.26,2.08.11,3.06-.52h0c.09-.06.19-.13.3-.21l.04-.03h0c1.03-.79,1.48-1.84,1.49-2.96,0-1.22-.51-2.55-1.4-3.78h0ZM110.99,93.76c1.47-.77,3.05-1.48,4.74-2.09,4.8-1.74,10.44-2.72,16.52-2.11-3.37-1.76-8.43-3.34-13.18-2.54-2.08.35-3.74,1.23-5.24,2.78-.99,1.02-1.91,2.33-2.85,3.96h0ZM133.91,91.96c-6.12-.78-12.69,0-17.47,1.73-1.9.69-3.65,1.5-5.23,2.37,15.69,3.73,12.4-1.8,22.71-4.1h0ZM115.14,73.86l-.08.06h0c-1.2.93-2.05,2.07-2.38,3.24-.31,1.08-.15,2.22.62,3.26h0s.03.04.03.04h0c.07.1.15.19.23.29.77.88,1.77,1.32,2.81,1.36,1.08.04,2.22-.36,3.25-1.15.13-.1.26-.21.4-.33,2.3-2.1,3.11-4.2,2.91-5.81-.08-.6-.3-1.13-.65-1.56-.34-.43-.81-.76-1.36-.95-1.46-.52-3.52-.16-5.78,1.55h0ZM89.74,103.04c-1.51-1.42-3.11-2.83-4.74-4.19-5.16-4.29-10.64-8.03-14.79-9.72,1.26,1.42,2.96,3.37,5.09,6.02,1.86,2.32,5.13,4.83,8.59,6.4,2,.91,4.04,1.48,5.86,1.49h0ZM76.28,89.91c3.23,1.96,6.71,4.52,10.05,7.29,1.45,1.2,2.87,2.45,4.23,3.7-1.38-4.16-5.58-7.18-10.05-9.28-1.41-.66-2.84-1.23-4.23-1.71h0ZM107.15,70.04l-.03-.08h0c-.93-2.31-2.31-3.51-3.61-3.78-.5-.1-.98-.07-1.41.09-.43.16-.82.45-1.14.86-.86,1.11-1.17,3.04-.36,5.66.03.11.09.25.15.43.42,1.06,1.09,1.86,1.9,2.32.78.44,1.71.55,2.66.25.06-.02.16-.06.3-.11h0s.04-.02.04-.02h0c1.01-.42,1.62-1.19,1.86-2.12.27-1.02.13-2.26-.36-3.5h0ZM104.62,50.51c-.91-7.93-7.1-10.88-13.47-13.91-2.7-1.28-5.43-2.58-7.88-4.27,1.92,3.92,7.23,7.72,12.76,11.67,2.95,2.1,5.95,4.25,8.59,6.51h0Z"/>
        <g>
          <path class="cls-2" d="M0,153.8c29.09,9.01,48.99-9.81,73.29-10.56,13.56-.42,23.87,2.09,30.89,6.08-8.51-8.51-17.53-13-29.39-14.73-19.85-2.88-45.19,18.97-74.79,19.21h0Z"/>
          <path class="cls-2" d="M208.27,158.64c-2.23,1.72-4.91,2.62-8.03,2.72-62.06-1.34-127.09-1.34-195.08,0-1.49-.12-3.1-1.18-4.82-3.19,40.52.12,79.78-6.71,104.37-6.35,14.44.21,34.83,2.35,49.13,3.3,33.52,2.22,54.43,3.54,54.44,3.52h0Z"/>
          <path class="cls-2" d="M208.36,153.8c-29.09,9.01-48.99-9.81-73.29-10.56-13.56-.42-23.87,2.09-30.89,6.08,8.51-8.51,17.53-13,29.39-14.73,19.85-2.88,45.19,18.97,74.79,19.21h0Z"/>
        </g>
      </g>
    </g>
  </g>
</svg>