<?xml version="1.0" encoding="UTF-8"?>
<svg id="Layer_2" data-name="Layer 2" xmlns="http://www.w3.org/2000/svg" viewBox="0 0 1408.29 299.15">
  <defs>
    <style>
      .cls-1 {
        fill: #c29559;
        fill-rule: evenodd;
      }

      .cls-2 {
        fill: #062b22;
      }
    </style>
  </defs>
  <g id="Layer_1-2" data-name="Layer 1">
    <g>
      <g>
        <path class="cls-2" d="M468.87,255.83c-5.69-.46-11.83-.7-18.44-.7s-13.69.23-21.23.7v-58.64c0-4.41-1.39-7.37-4.18-8.87-1.39-.81-2.78-1.22-4.18-1.22-5.57,0-8.35,3.37-8.35,10.09v28.54c0,3.83.58,7.28,1.74,10.35,1.16,3.08,3.94,5.19,8.35,6.35l-3.65,13.4-9.57-.7c-6.38-.58-12.47-.87-18.27-.87-4.76,0-10.9.52-18.44,1.57l-3.65-13.4c4.76-1.85,7.66-5.22,8.7-10.09.93-4.06,1.39-9.11,1.39-15.14v-3.65l.35-17.57-.17-9.57-.17-2.78v-1.57c0-4.64-.5-8.55-1.48-11.75-.99-3.19-3.8-5.42-8.44-6.7l3.65-13.4c13.57-.46,25.46-2.9,35.67-7.31l4,4v32.19c6.03-8.93,13.8-13.4,23.32-13.4,2.44,0,5.62.55,9.57,1.65,3.94,1.1,7.74,3.89,11.4,8.35,3.65,4.47,5.48,10.12,5.48,16.96v30.45c0,4.18.46,8.09,1.39,11.75.93,3.65,3.89,6.18,8.87,7.57l-3.65,13.4Z"/>
        <path class="cls-2" d="M520.9,258.26h-2.09c-11.14,0-21.17-3.57-30.1-10.7-8.93-7.13-13.75-18.18-14.44-33.15.23-15.89,4.58-27.9,13.05-36.02,8.7-8.47,19.25-12.7,31.67-12.7,11.6,0,22.04,4,31.32,12.01,9.28,8,13.92,20.42,13.92,37.24-.81,13.69-5.45,24.22-13.92,31.58-8.47,7.37-18.27,11.28-29.41,11.75ZM519.16,239.12c3.83,0,6.64-2.78,8.44-8.35,1.8-5.57,2.7-11.95,2.7-19.14-.12-7.19-1.13-13.54-3.04-19.05-1.91-5.51-4.78-8.38-8.61-8.61-3.48.23-6.12,3.1-7.92,8.61-1.8,5.51-2.7,11.86-2.7,19.05s.93,13.57,2.78,19.14c1.85,5.57,4.64,8.35,8.35,8.35Z"/>
        <path class="cls-2" d="M717,255.83c-5.57-.46-11.66-.7-18.27-.7s-13.69.23-21.23.7c0-19.6-.06-39.15-.17-58.64-.23-4.52-1.68-7.54-4.35-9.05-1.28-.81-2.61-1.22-4-1.22-5.22,0-8,3.37-8.35,10.09v26.62c0,4.06.49,7.86,1.48,11.4.98,3.54,3.92,6,8.79,7.4l-3.65,13.4c-5.69-.46-11.83-.7-18.44-.7s-13.69.23-21.23.7v-58.64c-.23-4.52-1.68-7.54-4.35-9.05-1.39-.81-2.78-1.22-4.18-1.22-5.57,0-8.35,3.42-8.35,10.27l.17,28.54c0,3.83.58,7.28,1.74,10.35,1.16,3.08,3.94,5.19,8.35,6.35l-3.65,13.4-9.74-.7c-6.26-.58-12.3-.87-18.1-.87-4.76,0-10.9.52-18.44,1.57l-3.65-13.4c4.41-1.74,7.19-4.58,8.35-8.53,1.16-3.94,1.74-8.81,1.74-14.62v-19.66c0-3.48-.46-6.96-1.39-10.44-.93-3.48-3.83-5.92-8.7-7.31l3.83-13.57c3.94.46,7.83.7,11.66.7,8.47,0,16.47-1.1,24.01-3.31l3.83,4v9.22c6.15-8.81,14.27-13.22,24.36-13.22,3.71,0,7.92.96,12.61,2.87,4.7,1.91,8.44,5.37,11.22,10.35,3.59-5.45,7.51-9.02,11.75-10.7,4.23-1.68,8.61-2.52,13.14-2.52,6.96,0,13.05,2.35,18.27,7.05,5.22,4.7,8,11.34,8.35,19.92v29.75c0,4.52.49,8.64,1.48,12.35.98,3.71,3.97,6.26,8.96,7.66l-3.83,13.4Z"/>
        <path class="cls-2" d="M765.54,258.09l-3.65-.17c-10.33-1.16-18.85-4.93-25.58-11.31-6.73-6.38-11.14-14.56-13.22-24.53-.58-3.25-.87-6.44-.87-9.57,0-10.55,3.74-20.71,11.22-30.45,7.48-9.74,19.05-15.2,34.71-16.36h2.26c16.01,0,27.61,7.25,34.8,21.75,1.04,2.44,1.57,4.52,1.57,6.26,0,3.6-1.86,6.15-5.57,7.66-7.19,2.44-14.44,4.82-21.75,7.13l-16.18,5.22c4.18,7.77,9.86,11.83,17.05,12.18h1.91c8.35,0,15.37-4.46,21.05-13.4l7.66,3.13c-1.51,11.95-6.55,22.21-15.14,30.8-7.89,7.77-17.98,11.66-30.28,11.66ZM757.71,200.67l7.48-2.44c3.13-.81,5.05-1.62,5.74-2.44.35-.35.52-.87.52-1.57,0-.81-.23-1.8-.7-2.96-1.28-3.01-2.96-5.51-5.05-7.48-1.74-1.62-3.42-2.44-5.05-2.44l-1.22.17c-2.78,1.16-4.18,3.89-4.18,8.18,0,3.25.81,6.9,2.44,10.96Z"/>
        <path class="cls-2" d="M876.03,299.15c-11.6,0-20.24-3.59-25.93-10.79-3.48-4.29-5.28-8.93-5.39-13.92,0-5.8,2.67-10.55,8-14.27,3.13-1.62,6.09-2.44,8.87-2.44s5.22.76,7.66,2.26c4.18,2.55,6.26,6.26,6.26,11.14l-.35,3.13c-.58,2.55-2.21,5.05-4.87,7.48l.35.87c8.35-1.85,12.53-6.84,12.53-14.96,0-4.06-1.57-7.71-4.7-10.96-2.67-2.78-6.55-4.18-11.66-4.18-4.64,0-10.09,1.16-16.36,3.48-7.77,2.78-13.98,4.18-18.62,4.18-3.25,0-6.38-.7-9.4-2.09-4.99-2.78-8.12-6.79-9.4-12.01-.35-1.51-.52-3.02-.52-4.52,0-3.48,1.16-7.19,3.48-11.14,2.32-3.94,6.96-6.55,13.92-7.83-6.61-5.22-10.15-12.35-10.61-21.4.23-11.6,4.67-20.42,13.31-26.45,8.64-6.03,19.28-9.05,31.93-9.05,2.2,0,4.41.12,6.61.35-.35-2.2-.52-4.29-.52-6.26,0-6.96,2.09-12.99,6.26-18.1,4.87-5.8,11.48-8.7,19.84-8.7,7.31,0,13.11,2.61,17.4,7.83,3.13,4.06,4.7,8.35,4.7,12.88,0,.35-.09,1.89-.26,4.61-.17,2.73-2.7,5.77-7.57,9.13-3.02,1.51-5.92,2.26-8.7,2.26s-5.39-.75-7.83-2.26c-3.48-2.32-5.22-5.33-5.22-9.05,0-1.39.23-2.9.7-4.52-.12-.23-.29-.35-.52-.35-1.97,0-4.12,1.25-6.44,3.74-2.32,2.5-3.48,5.77-3.48,9.83v.52c8.7,2.09,15.86,5.95,21.49,11.57,5.62,5.63,8.44,12.91,8.44,21.84v.52c-.93,10.09-5.6,17.81-14.01,23.14-8.41,5.34-18.18,8.18-29.32,8.53-4.41,0-7.37.06-8.87.17-6.03.35-9.05,2.2-9.05,5.57,0,.81.44,1.68,1.31,2.61.87.93,2.17,1.39,3.92,1.39,1.62,0,5.05-.81,10.27-2.44,8.24-2.9,16.99-4.35,26.27-4.35,7.42.35,14.06,2.93,19.92,7.74,5.86,4.82,8.84,12.33,8.96,22.53-.58,8.47-3.86,15.37-9.83,20.71-5.98,5.34-13.14,8.87-21.49,10.61-3.95.93-7.77,1.39-11.48,1.39ZM864.37,218.24c3.71,0,6.47-1.83,8.27-5.48,1.8-3.65,2.7-7.74,2.7-12.27v-4.18c-.12-2.55-1.13-5.68-3.04-9.4-1.91-3.71-4.73-5.62-8.44-5.74-3.6.12-6.26,1.97-8,5.57-1.74,3.6-2.61,7.6-2.61,12.01,0,5.45.93,10.06,2.78,13.83,1.85,3.77,4.64,5.65,8.35,5.65Z"/>
        <path class="cls-2" d="M964.6,255.83c-7.66-.58-15.31-.87-22.97-.87s-15.37.29-23.14.87l-3.65-13.4c4.87-2.09,7.77-4.99,8.7-8.7.93-3.71,1.39-8.99,1.39-15.83v-18.62c0-4.06-.46-7.57-1.39-10.53-.93-2.96-3.83-5.31-8.7-7.05l3.65-13.4c3.48.23,7.02.35,10.61.35,2.32,0,5.62-.09,9.92-.26,4.29-.17,8.87-1.07,13.75-2.7l3.13,9.92,2.09-.17c5.8-7.07,12.99-10.61,21.58-10.61,7.19,0,13.57,2.55,19.14,7.66,5.8,5.57,8.7,13.75,8.7,24.53v.7c-.81,8.93-4.29,15.25-10.44,18.97-4.18,2.55-8.53,3.83-13.05,3.83-1.97,0-5.16-.52-9.57-1.57-4.41-1.04-7.83-5.16-10.27-12.35-.46-1.62-.7-3.25-.7-4.87,0-2.2.64-4.73,1.91-7.57,1.28-2.84,3.83-5.07,7.66-6.7,1.62-.7,3.31-1.04,5.05-1.04,2.67,0,5.39.99,8.18,2.96l.52-.7c-.47-2.78-2.21-4.99-5.22-6.61-1.97-1.04-4.06-1.57-6.26-1.57-1.28,0-3.22.35-5.83,1.04-2.61.7-5.37,3.48-8.27,8.35l-.35.52c-1.74,3.02-2.61,7.25-2.61,12.7v13.75c0,9.17.84,15.49,2.52,18.97,1.68,3.48,4.26,5.68,7.74,6.61l-3.83,13.4Z"/>
        <path class="cls-2" d="M1055.94,258.26h-2.09c-11.14,0-21.17-3.57-30.1-10.7-8.93-7.13-13.75-18.18-14.44-33.15.23-15.89,4.58-27.9,13.05-36.02,8.7-8.47,19.25-12.7,31.67-12.7,11.6,0,22.04,4,31.32,12.01,9.28,8,13.92,20.42,13.92,37.24-.81,13.69-5.45,24.22-13.92,31.58-8.47,7.37-18.27,11.28-29.41,11.75ZM1054.2,239.12c3.83,0,6.64-2.78,8.44-8.35,1.8-5.57,2.7-11.95,2.7-19.14-.12-7.19-1.13-13.54-3.04-19.05-1.91-5.51-4.79-8.38-8.61-8.61-3.48.23-6.12,3.1-7.92,8.61-1.8,5.51-2.7,11.86-2.7,19.05s.93,13.57,2.78,19.14c1.85,5.57,4.64,8.35,8.35,8.35Z"/>
        <path class="cls-2" d="M1138.42,258.26c-6.15,0-12.01-2.15-17.57-6.44-5.57-4.29-8.59-11.02-9.05-20.18l-.17-24.53.17-6.79c0-3.83-.49-7.51-1.48-11.05-.99-3.54-3.97-6-8.96-7.39l3.65-13.57c5.57,1.16,11.66,1.74,18.27,1.74s13.8-.58,21.58-1.74v58.81c0,4.41,1.39,7.37,4.18,8.87,1.39.7,2.78,1.04,4.18,1.04,5.68,0,8.53-3.31,8.53-9.92l-.17-27.32c0-4.41-.61-8.21-1.83-11.4-1.22-3.19-4.03-5.36-8.44-6.52l3.65-13.57c5.8,1.39,12.12,2.09,18.97,2.09s13.51-.64,21.05-1.91l.17,12.18c0,12.99-.12,25.52-.35,37.58l.17,3.83v2.61c0,3.48.44,6.93,1.31,10.35.87,3.42,3.74,5.89,8.61,7.4l-3.65,13.4c-6.15-1.16-12.24-1.74-18.27-1.74s-11.72.58-17.4,1.74l-3.83-4v-6.61c-6.26,8.7-14.04,13.05-23.32,13.05Z"/>
        <path class="cls-2" d="M1306.68,255.83c-5.68-.46-11.83-.7-18.44-.7s-13.69.23-21.23.7v-58.64c-.23-4.52-1.68-7.54-4.35-9.05-1.39-.81-2.78-1.22-4.18-1.22-5.57,0-8.35,3.42-8.35,10.27l.17,28.54c0,3.83.58,7.28,1.74,10.35,1.16,3.08,3.94,5.19,8.35,6.35l-3.65,13.4-9.74-.7c-6.26-.58-12.3-.87-18.1-.87-4.76,0-10.9.52-18.44,1.57l-3.65-13.4c4.41-1.74,7.19-4.58,8.35-8.53,1.16-3.94,1.74-8.81,1.74-14.62v-19.66c0-3.48-.46-6.96-1.39-10.44-.93-3.48-3.83-5.92-8.7-7.31l3.83-13.57c3.94.46,7.83.7,11.66.7,8.47,0,16.47-1.1,24.01-3.31l3.83,4v9.22c6.15-8.7,13.92-13.05,23.32-13.05,6.26,0,12.15,2.18,17.66,6.53,5.51,4.35,8.44,11.11,8.79,20.27l.17,30.97c0,4.06.49,7.86,1.48,11.4.98,3.54,3.92,6,8.79,7.4l-3.65,13.4Z"/>
        <path class="cls-2" d="M1342.34,258.26h-.7c-11.14-.7-18.73-5.33-22.79-13.92-4.06-8.58-6.09-19.08-6.09-31.49,0-.35.03-3.8.09-10.35.06-6.55,2.12-13.95,6.18-22.18,3.71-6.73,8.93-11.19,15.66-13.4,2.55-.81,5.1-1.22,7.66-1.22,9.63,0,17.28,4.52,22.97,13.57-.23-3.59-1.04-6.84-2.44-9.74-1.39-2.9-3.89-4.87-7.48-5.92l3.65-13.4c13.46-.46,25.29-2.9,35.5-7.31l3.83,4v78.3c0,3.37.46,6.7,1.39,10.01.93,3.31,3.77,5.71,8.53,7.22l-3.65,13.4c-6.15-1.16-12.24-1.74-18.27-1.74s-11.72.58-17.4,1.74l-3.83-4v-6.61c-6.38,8.7-13.98,13.05-22.79,13.05ZM1357.48,239.3c2.32,0,4.29-1.1,5.92-3.31,1.27-2.44,1.91-7.83,1.91-16.18v-22.27c0-3.25-.84-5.71-2.52-7.39-1.68-1.68-3.57-2.58-5.66-2.7-2.78.23-4.9,2.84-6.35,7.83-1.45,4.99-2.23,10.85-2.35,17.57,0,6.61.61,12.5,1.83,17.66,1.22,5.16,3.1,8.03,5.66,8.61l1.57.17Z"/>
      </g>
      <g>
        <path class="cls-2" d="M131.91,56.88c1.69,7.53,5.86,13.02,10.78,16.98,4.35,3.5,9.32,5.83,13.72,7.32,3.14,1.06,5.96,1.69,8.05,2-4.15-3.62-9-7.08-13.74-10.46-7.37-5.26-14.51-10.36-18.81-15.84h0ZM154.43,124.53c-.09,1.18-.63,2.26-1.72,3.09l-.05.03-.36.24c-1.14.73-2.39.9-3.57.6-1.22-.31-2.37-1.13-3.27-2.36l-.34-.5c-1.91-3.1-2.15-5.71-1.41-7.45.05-.12.11-.23.17-.35-.18,1.62.31,3.69,1.76,6.05l.34.5c.9,1.23,2.05,2.04,3.27,2.36,1.17.3,2.42.13,3.57-.6l.36-.24.05-.03c.52-.4.91-.85,1.19-1.35h0ZM169.62,116.02c-.3,1.15-1.05,2.1-2.31,2.63l-.05.02-.37.14c-1.18.37-2.32.23-3.29-.31-1.01-.56-1.85-1.56-2.36-2.87l-.19-.53c-1-3.25-.61-5.65.45-7.02.04-.05.08-.1.12-.14-.33,1.34-.26,3.1.39,5.21l.19.53c.52,1.31,1.35,2.31,2.36,2.87.97.54,2.12.69,3.29.31l.37-.14.05-.02c.58-.24,1.05-.57,1.42-.97-.02.1-.04.2-.07.3h0ZM189.58,127.58c-1.34,1.04-2.83,1.56-4.24,1.51-1.36-.05-2.66-.63-3.67-1.78l-.3-.38-.04-.06c-1.01-1.37-1.21-2.85-.81-4.27.06-.22.14-.44.23-.66.07.86.38,1.72.99,2.54l.04.06.3.38c1.01,1.15,2.31,1.73,3.67,1.78,1.41.05,2.9-.46,4.24-1.51l.52-.44c1.79-1.63,2.89-3.25,3.43-4.75.08,2.04-1.04,4.59-3.84,7.14l-.52.44h0ZM185.93,58.6c.76,23.28-5.53,42.74-11.87,62.33-1.68,5.2-3.37,10.4-4.92,15.68,2.35-3.01,5-6.11,7.19-8.52-.97-2.09-1.06-4.27-.46-6.38.73-2.58,2.51-5,4.98-6.92h0s.12-.1.12-.1h0c4.59-3.5,9.02-4.14,12.29-2.98,1.49.53,2.74,1.42,3.67,2.58.93,1.16,1.54,2.59,1.74,4.2.46,3.57-1.12,8.02-5.71,12.19-.27.24-.55.48-.83.7-2.26,1.76-4.84,2.62-7.32,2.53-2.41-.09-4.7-1.06-6.53-2.97-2.81,3.12-6.23,7.22-8.76,10.71-1.39,1.92-2.5,3.57-3.04,4.63-.38,1.52-.74,3.04-1.08,4.58-.08.58-.2,1.14-.36,1.66-.22,1.05-.43,2.11-.64,3.17-.14.75-.28,1.49-.41,2.22,1.86-1.87,4.19-3.8,6.92-5.64,2.5-5.24,4.89-9.14,7.61-11.94,2.9-2.99,6.13-4.7,10.16-5.39,10.08-1.7,20.87,2.65,26.3,6.3,1.3.88,2.33,1.74,3.01,2.49,1.07,1.2,1.42,2.38.92,3.42-.38.79-1.11,1.27-2.23,1.37-18.25,3.61-11.71,15.15-44.04,6.63-4.75,3.21-8.12,6.67-9.69,9.47-1.07,7.94-1.53,17.54-1.08,25.66.59,10.66,2.45,20.88,5.1,31.99.22.91-.34,1.83-1.23,2.05-.9.22-1.8-.34-2.02-1.25-2.69-11.31-4.59-21.72-5.19-32.6-.08-1.37-.13-2.75-.17-4.14-.08-3.25-1.03-6.03-2.95-8.63-2.44-3.3-5.77-7.04-9.6-10.84-4.2.89-9.15-.2-13.88-2.34-5.95-2.69-11.63-7.08-14.88-11.13-4.29-5.35-7.48-8.89-9.52-11.16-2.45-2.72-3.6-4-2.98-5.34.31-.67.88-1.01,1.7-1.02.87,0,4.16.46,8.43,1.54,4.23,1.06,9.54,2.73,14.65,5.13,9.45,4.44,18.21,11.39,18.65,21.76,4.22,4.18,7.88,8.32,10.51,11.97.34-6.64,1.18-13.61,2.61-21.19.31-1.62.64-3.23.99-4.82.3-2.43-.33-5.65-1.64-8.86-1.27-3.11-3.16-6.15-5.44-8.4-2.3,1.36-4.8,1.66-7.16,1.05-2.4-.61-4.64-2.17-6.33-4.49-.22-.3-.43-.61-.61-.91h0c-3.27-5.31-3.57-10.03-2.16-13.33.64-1.48,1.61-2.68,2.82-3.54,1.21-.86,2.66-1.36,4.22-1.45,3.38-.19,7.35,1.58,10.75,5.99-1.5-5.18-.68-9.23,1.25-11.72.89-1.15,2.03-1.98,3.29-2.45,1.27-.47,2.65-.57,4.04-.28,3.07.64,6.22,3.21,8.18,8.06h0s.05.14.05.14h0c.12.3.22.6.32.89.6-1.9,1.18-3.81,1.75-5.73,1.36-6.01-1.08-11.44-5.45-16.51-1-1.16-2.27-1.8-3.79-1.9-2.25-.15-6.29-.83-10.9-2.39-4.69-1.59-10.01-4.09-14.74-7.89-7.6-6.11-13.58-15.5-12.79-29.64h0c.02-.37.16-.74.43-1.04.62-.7,1.68-.75,2.36-.12,4.38,4.01,10.07,6.71,15.68,9.38,11.96,5.69,23.55,11.2,23.53,28.42,3.81,3.75,6.82,7.72,8.34,12.05,2.91-11.53,4.84-23.52,4.43-36.7-.04-1.42-.82-2.61-2.08-3.22-1.42-.68-3.09-1.53-3.69-1.85-7.73-4.15-12.57-11.2-15.16-19.23-3.25-10.09-2.89-21.75-.2-31.06.04-.57.12-1.08.26-1.5.2-.6.49-1.1.88-1.49.65-.67,1.71-.67,2.37,0,.18.18.31.4.39.63,1.78,4.51,5.5,9.24,9.4,14.19,8.2,10.42,17.15,21.79,12.49,35.66-1.31,3.88-1.45,3.48-1.32,7.63h0ZM164.21,141.76c1.7-6.35,3.64-12.52,5.62-18.66-.21.1-.42.2-.64.3h0s-.07.04-.07.04h0c-.19.08-.43.17-.72.26-2.43.77-4.81.47-6.83-.66-.84-.47-1.62-1.09-2.31-1.83.39,1.21.6,2.43.6,3.62,0,2.19-.69,4.26-2.19,6,2.5,2.56,4.55,5.88,5.93,9.26.23.56.44,1.12.63,1.68h0ZM183.73,50.81c4.74-12.64-3.78-23.47-11.58-33.37-2.56-3.25-5.04-6.4-7.02-9.54,1.08,5.16,4.06,13.05,7.44,20.82,3.99,9.18,8.52,18.05,11.16,22.09h0ZM163.03,12.77c-.78,6.8-.3,14.13,1.82,20.74,2.54,7.9,7.48,14.74,15.52,18.23-2.89-4.7-7.15-13.08-10.87-21.65-2.62-6.02-4.99-12.18-6.47-17.32h0ZM188.35,88.27c1.67-5.38,7.16-15.13,18.15-23.6,7.36-5.67,17.2-10.81,30.05-13.72.9-.2,1.8.38,2,1.29.01.07.02.13.03.2h0c.05.53.06,1.1.01,1.71-.37,5.18-4.44,13.68-11.53,21.13-7.05,7.41-17.11,13.88-29.53,15.15-2.48.25-5.06.3-7.72.1-.92-.07-1.61-.88-1.55-1.82.01-.15.04-.3.09-.44h0ZM208.53,67.37c-7.37,5.68-12.08,11.89-14.74,16.77,9.61-6.59,27.87-19.32,37.62-28.33-9.49,2.87-17.02,7.04-22.88,11.56h0ZM195.33,87.19c.63-.03,1.25-.08,1.86-.15,11.52-1.18,20.88-7.21,27.46-14.12,4.99-5.25,8.35-10.93,9.81-15.35-9.93,9.4-29.31,22.89-39.12,29.61h0ZM154.26,118.81l-.09-.13c-2.7-3.64-5.7-5.1-8.15-4.96-.94.05-1.79.35-2.5.85-.71.5-1.28,1.21-1.66,2.1-1.01,2.37-.69,5.93,1.92,10.17h0c.16.25.31.48.46.69,1.22,1.68,2.8,2.79,4.46,3.22,1.6.41,3.31.17,4.87-.82h0c.14-.09.3-.2.48-.33l.06-.05h0c1.63-1.25,2.36-2.92,2.36-4.71,0-1.94-.81-4.05-2.23-6.01h0ZM176.41,149.02c2.33-1.22,4.85-2.35,7.53-3.32,7.62-2.76,16.59-4.32,26.26-3.36-5.36-2.8-13.4-5.31-20.95-4.04-3.3.56-5.95,1.96-8.32,4.41-1.57,1.62-3.04,3.7-4.52,6.3h0ZM212.83,146.16c-9.72-1.24-20.17,0-27.77,2.75-3.01,1.09-5.8,2.38-8.32,3.77,24.94,5.92,19.71-2.87,36.09-6.52h0ZM183.01,117.4l-.12.1h0c-1.9,1.48-3.26,3.28-3.79,5.15-.49,1.72-.24,3.53.98,5.19h0s.05.07.05.07h0c.12.16.24.31.37.46,1.23,1.4,2.81,2.1,4.46,2.16,1.71.06,3.53-.56,5.16-1.83.21-.16.42-.34.63-.53,3.66-3.33,4.95-6.67,4.62-9.23-.12-.95-.48-1.8-1.03-2.48-.55-.68-1.28-1.2-2.16-1.52-2.31-.82-5.59-.26-9.18,2.47h0ZM142.64,163.77c-2.4-2.25-4.94-4.49-7.54-6.65-8.21-6.82-16.91-12.76-23.51-15.45,2.01,2.25,4.71,5.36,8.09,9.57,2.95,3.68,8.16,7.68,13.65,10.17,3.18,1.44,6.43,2.36,9.32,2.37h0ZM121.24,142.9c5.13,3.12,10.67,7.18,15.97,11.59,2.3,1.91,4.55,3.89,6.72,5.89-2.2-6.61-8.87-11.42-15.97-14.75-2.24-1.05-4.52-1.95-6.72-2.72h0ZM170.3,111.32l-.05-.12h0c-1.49-3.67-3.68-5.58-5.74-6.01-.79-.16-1.55-.11-2.23.14-.68.25-1.3.71-1.8,1.36-1.36,1.76-1.86,4.83-.58,9,.05.18.14.4.24.68.66,1.68,1.73,2.96,3.03,3.68,1.24.7,2.71.88,4.22.4.1-.03.26-.09.47-.18h0s.06-.02.06-.02h0c1.61-.67,2.57-1.89,2.96-3.37.42-1.62.2-3.59-.58-5.56h0ZM166.29,80.28c-1.45-12.61-11.28-17.29-21.42-22.11-4.29-2.04-8.63-4.11-12.52-6.79,3.04,6.23,11.5,12.26,20.29,18.54,4.69,3.34,9.46,6.75,13.65,10.35h0Z"/>
        <g>
          <path class="cls-1" d="M0,244.46c46.23,14.32,77.87-15.6,116.49-16.79,21.56-.66,37.94,3.32,49.1,9.66-13.52-13.53-27.87-20.67-46.72-23.41-31.54-4.58-71.83,30.15-118.87,30.54h0Z"/>
          <path class="cls-1" d="M331.03,252.15c-3.55,2.73-7.8,4.17-12.76,4.32-98.64-2.13-202-2.13-310.06,0-2.37-.19-4.93-1.88-7.67-5.07,64.41.19,126.81-10.66,165.88-10.09,22.95.34,55.36,3.74,78.08,5.24,53.28,3.53,86.52,5.63,86.52,5.6h0Z"/>
          <path class="cls-1" d="M331.18,244.46c-46.23,14.32-77.87-15.6-116.49-16.79-21.56-.66-37.94,3.32-49.1,9.66,13.52-13.53,27.87-20.67,46.72-23.41,31.54-4.58,71.83,30.15,118.87,30.54h0Z"/>
        </g>
      </g>
    </g>
  </g>
</svg>