<?xml version="1.0" encoding="UTF-8"?>
<svg id="Layer_2" data-name="Layer 2" xmlns="http://www.w3.org/2000/svg" viewBox="0 0 1279.92 199.75">
  <defs>
    <style>
      .cls-1 {
        fill: #c29559;
        fill-rule: evenodd;
      }

      .cls-2 {
        fill: #062b22;
      }
    </style>
  </defs>
  <g id="Layer_1-2" data-name="Layer 1">
    <g>
      <g>
        <path class="cls-2" d="M340.51,156.42c-5.69-.46-11.83-.7-18.44-.7s-13.69.23-21.23.7v-58.64c0-4.41-1.39-7.37-4.18-8.87-1.39-.81-2.78-1.22-4.18-1.22-5.57,0-8.35,3.37-8.35,10.09v28.54c0,3.83.58,7.28,1.74,10.35,1.16,3.08,3.94,5.19,8.35,6.35l-3.65,13.4-9.57-.7c-6.38-.58-12.47-.87-18.27-.87-4.76,0-10.9.52-18.44,1.57l-3.65-13.4c4.76-1.85,7.66-5.22,8.7-10.09.93-4.06,1.39-9.11,1.39-15.14v-3.65l.35-17.57-.17-9.57-.17-2.78v-1.57c0-4.64-.5-8.55-1.48-11.75-.99-3.19-3.8-5.42-8.44-6.7l3.65-13.4c13.57-.46,25.46-2.9,35.67-7.31l4,4v32.19c6.03-8.93,13.8-13.4,23.32-13.4,2.44,0,5.62.55,9.57,1.65,3.94,1.1,7.74,3.89,11.4,8.35,3.65,4.47,5.48,10.12,5.48,16.96v30.45c0,4.18.46,8.09,1.39,11.75.93,3.65,3.89,6.18,8.87,7.57l-3.65,13.4Z"/>
        <path class="cls-2" d="M392.53,158.86h-2.09c-11.14,0-21.17-3.57-30.1-10.7-8.93-7.13-13.75-18.18-14.44-33.15.23-15.89,4.58-27.9,13.05-36.02,8.7-8.47,19.25-12.7,31.67-12.7,11.6,0,22.04,4,31.32,12.01,9.28,8,13.92,20.42,13.92,37.24-.81,13.69-5.45,24.22-13.92,31.58-8.47,7.37-18.27,11.28-29.41,11.75ZM390.79,139.72c3.83,0,6.64-2.78,8.44-8.35,1.8-5.57,2.7-11.95,2.7-19.14-.12-7.19-1.13-13.54-3.04-19.05-1.91-5.51-4.78-8.38-8.61-8.61-3.48.23-6.12,3.1-7.92,8.61-1.8,5.51-2.7,11.86-2.7,19.05s.93,13.57,2.78,19.14c1.85,5.57,4.64,8.35,8.35,8.35Z"/>
        <path class="cls-2" d="M588.63,156.42c-5.57-.46-11.66-.7-18.27-.7s-13.69.23-21.23.7c0-19.6-.06-39.15-.17-58.64-.23-4.52-1.68-7.54-4.35-9.05-1.28-.81-2.61-1.22-4-1.22-5.22,0-8,3.37-8.35,10.09v26.62c0,4.06.49,7.86,1.48,11.4.98,3.54,3.92,6,8.79,7.4l-3.65,13.4c-5.69-.46-11.83-.7-18.44-.7s-13.69.23-21.23.7v-58.64c-.23-4.52-1.68-7.54-4.35-9.05-1.39-.81-2.78-1.22-4.18-1.22-5.57,0-8.35,3.42-8.35,10.27l.17,28.54c0,3.83.58,7.28,1.74,10.35,1.16,3.08,3.94,5.19,8.35,6.35l-3.65,13.4-9.74-.7c-6.26-.58-12.3-.87-18.1-.87-4.76,0-10.9.52-18.44,1.57l-3.65-13.4c4.41-1.74,7.19-4.58,8.35-8.53,1.16-3.94,1.74-8.81,1.74-14.62v-19.66c0-3.48-.46-6.96-1.39-10.44-.93-3.48-3.83-5.92-8.7-7.31l3.83-13.57c3.94.46,7.83.7,11.66.7,8.47,0,16.47-1.1,24.01-3.31l3.83,4v9.22c6.15-8.81,14.27-13.22,24.36-13.22,3.71,0,7.92.96,12.61,2.87,4.7,1.91,8.44,5.37,11.22,10.35,3.59-5.45,7.51-9.02,11.75-10.7,4.23-1.68,8.61-2.52,13.14-2.52,6.96,0,13.05,2.35,18.27,7.05,5.22,4.7,8,11.34,8.35,19.92v29.75c0,4.52.49,8.64,1.48,12.35.98,3.71,3.97,6.26,8.96,7.66l-3.83,13.4Z"/>
        <path class="cls-2" d="M637.18,158.68l-3.65-.17c-10.33-1.16-18.85-4.93-25.58-11.31-6.73-6.38-11.14-14.56-13.22-24.53-.58-3.25-.87-6.44-.87-9.57,0-10.55,3.74-20.71,11.22-30.45,7.48-9.74,19.05-15.2,34.71-16.36h2.26c16.01,0,27.61,7.25,34.8,21.75,1.04,2.44,1.57,4.52,1.57,6.26,0,3.6-1.86,6.15-5.57,7.66-7.19,2.44-14.44,4.82-21.75,7.13l-16.18,5.22c4.18,7.77,9.86,11.83,17.05,12.18h1.91c8.35,0,15.37-4.46,21.05-13.4l7.66,3.13c-1.51,11.95-6.55,22.21-15.14,30.8-7.89,7.77-17.98,11.66-30.28,11.66ZM629.35,101.26l7.48-2.44c3.13-.81,5.05-1.62,5.74-2.44.35-.35.52-.87.52-1.57,0-.81-.23-1.8-.7-2.96-1.28-3.01-2.96-5.51-5.05-7.48-1.74-1.62-3.42-2.44-5.05-2.44l-1.22.17c-2.78,1.16-4.18,3.89-4.18,8.18,0,3.25.81,6.9,2.44,10.96Z"/>
        <path class="cls-2" d="M747.66,199.75c-11.6,0-20.24-3.59-25.93-10.79-3.48-4.29-5.28-8.93-5.39-13.92,0-5.8,2.67-10.55,8-14.27,3.13-1.62,6.09-2.44,8.87-2.44s5.22.76,7.66,2.26c4.18,2.55,6.26,6.26,6.26,11.14l-.35,3.13c-.58,2.55-2.21,5.05-4.87,7.48l.35.87c8.35-1.85,12.53-6.84,12.53-14.96,0-4.06-1.57-7.71-4.7-10.96-2.67-2.78-6.55-4.18-11.66-4.18-4.64,0-10.09,1.16-16.36,3.48-7.77,2.78-13.98,4.18-18.62,4.18-3.25,0-6.38-.7-9.4-2.09-4.99-2.78-8.12-6.79-9.4-12.01-.35-1.51-.52-3.02-.52-4.52,0-3.48,1.16-7.19,3.48-11.14,2.32-3.94,6.96-6.55,13.92-7.83-6.61-5.22-10.15-12.35-10.61-21.4.23-11.6,4.67-20.42,13.31-26.45,8.64-6.03,19.28-9.05,31.93-9.05,2.2,0,4.41.12,6.61.35-.35-2.2-.52-4.29-.52-6.26,0-6.96,2.09-12.99,6.26-18.1,4.87-5.8,11.48-8.7,19.84-8.7,7.31,0,13.11,2.61,17.4,7.83,3.13,4.06,4.7,8.35,4.7,12.88,0,.35-.09,1.89-.26,4.61-.17,2.73-2.7,5.77-7.57,9.13-3.02,1.51-5.92,2.26-8.7,2.26s-5.39-.75-7.83-2.26c-3.48-2.32-5.22-5.33-5.22-9.05,0-1.39.23-2.9.7-4.52-.12-.23-.29-.35-.52-.35-1.97,0-4.12,1.25-6.44,3.74-2.32,2.5-3.48,5.77-3.48,9.83v.52c8.7,2.09,15.86,5.95,21.49,11.57,5.62,5.63,8.44,12.91,8.44,21.84v.52c-.93,10.09-5.6,17.81-14.01,23.14-8.41,5.34-18.18,8.18-29.32,8.53-4.41,0-7.37.06-8.87.17-6.03.35-9.05,2.2-9.05,5.57,0,.81.44,1.68,1.31,2.61.87.93,2.17,1.39,3.92,1.39,1.62,0,5.05-.81,10.27-2.44,8.24-2.9,16.99-4.35,26.27-4.35,7.42.35,14.06,2.93,19.92,7.74,5.86,4.82,8.84,12.33,8.96,22.53-.58,8.47-3.86,15.37-9.83,20.71-5.98,5.34-13.14,8.87-21.49,10.61-3.95.93-7.77,1.39-11.48,1.39ZM736.01,118.84c3.71,0,6.47-1.83,8.27-5.48,1.8-3.65,2.7-7.74,2.7-12.27v-4.18c-.12-2.55-1.13-5.68-3.04-9.4-1.91-3.71-4.73-5.62-8.44-5.74-3.6.12-6.26,1.97-8,5.57-1.74,3.6-2.61,7.6-2.61,12.01,0,5.45.93,10.06,2.78,13.83,1.85,3.77,4.64,5.65,8.35,5.65Z"/>
        <path class="cls-2" d="M836.23,156.42c-7.66-.58-15.31-.87-22.97-.87s-15.37.29-23.14.87l-3.65-13.4c4.87-2.09,7.77-4.99,8.7-8.7.93-3.71,1.39-8.99,1.39-15.83v-18.62c0-4.06-.46-7.57-1.39-10.53-.93-2.96-3.83-5.31-8.7-7.05l3.65-13.4c3.48.23,7.02.35,10.61.35,2.32,0,5.62-.09,9.92-.26,4.29-.17,8.87-1.07,13.75-2.7l3.13,9.92,2.09-.17c5.8-7.07,12.99-10.61,21.58-10.61,7.19,0,13.57,2.55,19.14,7.66,5.8,5.57,8.7,13.75,8.7,24.53v.7c-.81,8.93-4.29,15.25-10.44,18.97-4.18,2.55-8.53,3.83-13.05,3.83-1.97,0-5.16-.52-9.57-1.57-4.41-1.04-7.83-5.16-10.27-12.35-.46-1.62-.7-3.25-.7-4.87,0-2.2.64-4.73,1.91-7.57,1.28-2.84,3.83-5.07,7.66-6.7,1.62-.7,3.31-1.04,5.05-1.04,2.67,0,5.39.99,8.18,2.96l.52-.7c-.47-2.78-2.21-4.99-5.22-6.61-1.97-1.04-4.06-1.57-6.26-1.57-1.28,0-3.22.35-5.83,1.04-2.61.7-5.37,3.48-8.27,8.35l-.35.52c-1.74,3.02-2.61,7.25-2.61,12.7v13.75c0,9.17.84,15.49,2.52,18.97,1.68,3.48,4.26,5.68,7.74,6.61l-3.83,13.4Z"/>
        <path class="cls-2" d="M927.58,158.86h-2.09c-11.14,0-21.17-3.57-30.1-10.7-8.93-7.13-13.75-18.18-14.44-33.15.23-15.89,4.58-27.9,13.05-36.02,8.7-8.47,19.25-12.7,31.67-12.7,11.6,0,22.04,4,31.32,12.01,9.28,8,13.92,20.42,13.92,37.24-.81,13.69-5.45,24.22-13.92,31.58-8.47,7.37-18.27,11.28-29.41,11.75ZM925.84,139.72c3.83,0,6.64-2.78,8.44-8.35,1.8-5.57,2.7-11.95,2.7-19.14-.12-7.19-1.13-13.54-3.04-19.05-1.91-5.51-4.79-8.38-8.61-8.61-3.48.23-6.12,3.1-7.92,8.61-1.8,5.51-2.7,11.86-2.7,19.05s.93,13.57,2.78,19.14c1.85,5.57,4.64,8.35,8.35,8.35Z"/>
        <path class="cls-2" d="M1010.05,158.86c-6.15,0-12.01-2.15-17.57-6.44-5.57-4.29-8.59-11.02-9.05-20.18l-.17-24.53.17-6.79c0-3.83-.49-7.51-1.48-11.05-.99-3.54-3.97-6-8.96-7.39l3.65-13.57c5.57,1.16,11.66,1.74,18.27,1.74s13.8-.58,21.58-1.74v58.81c0,4.41,1.39,7.37,4.18,8.87,1.39.7,2.78,1.04,4.18,1.04,5.68,0,8.53-3.31,8.53-9.92l-.17-27.32c0-4.41-.61-8.21-1.83-11.4-1.22-3.19-4.03-5.36-8.44-6.52l3.65-13.57c5.8,1.39,12.12,2.09,18.97,2.09s13.51-.64,21.05-1.91l.17,12.18c0,12.99-.12,25.52-.35,37.58l.17,3.83v2.61c0,3.48.44,6.93,1.31,10.35.87,3.42,3.74,5.89,8.61,7.4l-3.65,13.4c-6.15-1.16-12.24-1.74-18.27-1.74s-11.72.58-17.4,1.74l-3.83-4v-6.61c-6.26,8.7-14.04,13.05-23.32,13.05Z"/>
        <path class="cls-2" d="M1178.31,156.42c-5.68-.46-11.83-.7-18.44-.7s-13.69.23-21.23.7v-58.64c-.23-4.52-1.68-7.54-4.35-9.05-1.39-.81-2.78-1.22-4.18-1.22-5.57,0-8.35,3.42-8.35,10.27l.17,28.54c0,3.83.58,7.28,1.74,10.35,1.16,3.08,3.94,5.19,8.35,6.35l-3.65,13.4-9.74-.7c-6.26-.58-12.3-.87-18.1-.87-4.76,0-10.9.52-18.44,1.57l-3.65-13.4c4.41-1.74,7.19-4.58,8.35-8.53,1.16-3.94,1.74-8.81,1.74-14.62v-19.66c0-3.48-.46-6.96-1.39-10.44-.93-3.48-3.83-5.92-8.7-7.31l3.83-13.57c3.94.46,7.83.7,11.66.7,8.47,0,16.47-1.1,24.01-3.31l3.83,4v9.22c6.15-8.7,13.92-13.05,23.32-13.05,6.26,0,12.15,2.18,17.66,6.53,5.51,4.35,8.44,11.11,8.79,20.27l.17,30.97c0,4.06.49,7.86,1.48,11.4.98,3.54,3.92,6,8.79,7.4l-3.65,13.4Z"/>
        <path class="cls-2" d="M1213.98,158.86h-.7c-11.14-.7-18.73-5.33-22.79-13.92-4.06-8.58-6.09-19.08-6.09-31.49,0-.35.03-3.8.09-10.35.06-6.55,2.12-13.95,6.18-22.18,3.71-6.73,8.93-11.19,15.66-13.4,2.55-.81,5.1-1.22,7.66-1.22,9.63,0,17.28,4.52,22.97,13.57-.23-3.59-1.04-6.84-2.44-9.74-1.39-2.9-3.89-4.87-7.48-5.92l3.65-13.4c13.46-.46,25.29-2.9,35.5-7.31l3.83,4v78.3c0,3.37.46,6.7,1.39,10.01.93,3.31,3.77,5.71,8.53,7.22l-3.65,13.4c-6.15-1.16-12.24-1.74-18.27-1.74s-11.72.58-17.4,1.74l-3.83-4v-6.61c-6.38,8.7-13.98,13.05-22.79,13.05ZM1229.11,139.89c2.32,0,4.29-1.1,5.92-3.31,1.27-2.44,1.91-7.83,1.91-16.18v-22.27c0-3.25-.84-5.71-2.52-7.39-1.68-1.68-3.57-2.58-5.66-2.7-2.78.23-4.9,2.84-6.35,7.83-1.45,4.99-2.23,10.85-2.35,17.57,0,6.61.61,12.5,1.83,17.66,1.22,5.16,3.1,8.03,5.66,8.61l1.57.17Z"/>
      </g>
      <g>
        <path class="cls-2" d="M80.78,34.83c1.03,4.61,3.59,7.97,6.6,10.4,2.67,2.14,5.71,3.57,8.4,4.48,1.92.65,3.65,1.03,4.93,1.23-2.54-2.22-5.51-4.33-8.42-6.41-4.51-3.22-8.89-6.34-11.52-9.7h0ZM94.57,76.26c-.06.72-.39,1.38-1.05,1.89l-.03.02-.22.15c-.7.45-1.47.55-2.18.37-.75-.19-1.45-.69-2-1.44l-.21-.31c-1.17-1.9-1.32-3.5-.86-4.56.03-.07.07-.14.1-.21-.11.99.19,2.26,1.08,3.7l.21.31c.55.75,1.25,1.25,2,1.44.72.18,1.48.08,2.18-.37l.22-.15.03-.02c.32-.24.56-.52.73-.83h0ZM103.87,71.05c-.18.71-.64,1.29-1.41,1.61h-.03s-.23.1-.23.1c-.72.23-1.42.14-2.02-.19-.62-.35-1.13-.96-1.45-1.76l-.12-.32c-.61-1.99-.37-3.46.28-4.3.02-.03.05-.06.07-.09-.2.82-.16,1.9.24,3.19l.12.32c.32.8.83,1.41,1.45,1.76.59.33,1.3.42,2.02.19l.23-.08h.03c.35-.16.64-.36.87-.61-.01.06-.03.12-.04.18h0ZM116.1,78.13c-.82.64-1.74.95-2.6.92-.83-.03-1.63-.39-2.25-1.09l-.18-.23-.03-.04c-.62-.84-.74-1.75-.5-2.61.04-.14.09-.27.14-.41.04.53.24,1.05.6,1.56l.03.04.18.23c.62.7,1.42,1.06,2.25,1.09.86.03,1.78-.28,2.6-.92l.32-.27c1.1-1,1.77-1.99,2.1-2.91.05,1.25-.63,2.81-2.35,4.37l-.32.27h0ZM113.87,35.89c.47,14.25-3.39,26.17-7.27,38.17-1.03,3.18-2.06,6.37-3.01,9.6,1.44-1.84,3.06-3.74,4.4-5.22-.59-1.28-.65-2.62-.28-3.91.45-1.58,1.54-3.06,3.05-4.24h0s.08-.06.08-.06h0c2.81-2.14,5.52-2.53,7.53-1.82.91.32,1.68.87,2.25,1.58.57.71.94,1.59,1.07,2.57.28,2.18-.69,4.91-3.5,7.47-.16.15-.33.29-.51.43-1.38,1.08-2.96,1.61-4.48,1.55-1.47-.05-2.88-.65-4-1.82-1.72,1.91-3.81,4.42-5.36,6.56-.85,1.17-1.53,2.19-1.86,2.84-.23.93-.45,1.86-.66,2.81-.05.36-.12.7-.22,1.02-.14.64-.27,1.29-.39,1.94-.09.46-.17.91-.25,1.36,1.14-1.15,2.57-2.33,4.24-3.46,1.53-3.21,3-5.6,4.66-7.31,1.78-1.83,3.75-2.88,6.22-3.3,6.17-1.04,12.78,1.62,16.1,3.86.8.54,1.43,1.06,1.84,1.53.65.73.87,1.46.57,2.09-.23.48-.68.78-1.37.84-11.18,2.21-7.17,9.28-26.97,4.06-2.91,1.97-4.97,4.08-5.93,5.8-.65,4.86-.93,10.74-.66,15.72.36,6.53,1.5,12.79,3.12,19.59.13.56-.21,1.12-.76,1.25-.55.13-1.1-.21-1.23-.77-1.65-6.93-2.81-13.3-3.18-19.96-.05-.84-.08-1.69-.1-2.54-.05-1.99-.63-3.69-1.81-5.29-1.49-2.02-3.53-4.31-5.88-6.64-2.57.55-5.61-.13-8.5-1.43-3.65-1.65-7.12-4.33-9.11-6.82-2.63-3.28-4.58-5.45-5.83-6.83-1.5-1.66-2.2-2.45-1.83-3.27.19-.41.54-.62,1.04-.62.53,0,2.55.28,5.17.94,2.59.65,5.84,1.67,8.97,3.14,5.79,2.72,11.15,6.97,11.42,13.32,2.58,2.56,4.83,5.09,6.44,7.33.21-4.06.72-8.34,1.6-12.98.19-.99.39-1.98.61-2.95.18-1.49-.2-3.46-1.01-5.43-.78-1.9-1.93-3.76-3.33-5.14-1.41.83-2.94,1.01-4.38.64-1.47-.38-2.84-1.33-3.88-2.75-.14-.19-.26-.37-.37-.55h0c-2-3.25-2.19-6.14-1.32-8.16.39-.91.99-1.64,1.73-2.17.74-.52,1.63-.83,2.59-.89,2.07-.12,4.5.97,6.58,3.67-.92-3.17-.42-5.65.77-7.18.55-.71,1.24-1.21,2.02-1.5.78-.29,1.62-.35,2.48-.17,1.88.39,3.81,1.97,5.01,4.93h0s.03.08.03.08h0c.07.18.14.36.19.54.37-1.17.73-2.34,1.07-3.51.83-3.68-.66-7-3.34-10.11-.61-.71-1.39-1.1-2.32-1.16-1.38-.09-3.85-.51-6.68-1.46-2.87-.97-6.13-2.51-9.02-4.83-4.66-3.74-8.32-9.49-7.83-18.15h0c.01-.23.1-.45.26-.64.38-.43,1.03-.46,1.45-.08,2.68,2.46,6.17,4.11,9.6,5.74,7.33,3.48,14.42,6.86,14.41,17.4,2.33,2.29,4.18,4.73,5.11,7.38,1.78-7.06,2.97-14.41,2.71-22.47-.03-.87-.5-1.6-1.28-1.97-.87-.42-1.89-.94-2.26-1.14-4.73-2.54-7.7-6.86-9.28-11.77-1.99-6.18-1.77-13.32-.12-19.02.02-.35.08-.66.16-.92.12-.37.3-.67.54-.91.4-.41,1.05-.41,1.45,0,.11.11.19.24.24.38,1.09,2.76,3.37,5.66,5.75,8.69,5.02,6.38,10.5,13.35,7.65,21.84-.8,2.38-.89,2.13-.81,4.67h0ZM100.56,86.82c1.04-3.89,2.23-7.67,3.44-11.43-.13.06-.26.12-.39.18h0s-.04.02-.04.02h0c-.11.05-.26.1-.44.16-1.49.47-2.95.29-4.18-.4-.52-.29-.99-.67-1.41-1.12.24.74.37,1.49.37,2.22,0,1.34-.42,2.61-1.34,3.67,1.53,1.57,2.79,3.6,3.63,5.67.14.34.27.68.38,1.03h0ZM112.52,31.12c2.9-7.74-2.31-14.37-7.09-20.44-1.57-1.99-3.09-3.92-4.3-5.84.66,3.16,2.48,7.99,4.55,12.75,2.45,5.62,5.22,11.05,6.83,13.53h0ZM99.84,7.82c-.47,4.16-.19,8.65,1.11,12.7,1.56,4.84,4.58,9.02,9.51,11.17-1.77-2.88-4.38-8.01-6.66-13.26-1.6-3.69-3.06-7.46-3.96-10.61h0ZM115.34,54.05c1.03-3.29,4.39-9.27,11.12-14.46,4.51-3.47,10.53-6.62,18.4-8.4.55-.12,1.1.23,1.22.79,0,.04.02.08.02.12h0c.03.32.03.68,0,1.05-.23,3.17-2.72,8.38-7.06,12.94-4.32,4.54-10.48,8.5-18.09,9.28-1.52.16-3.1.18-4.73.06-.56-.04-.99-.54-.95-1.12,0-.09.03-.19.06-.27h0ZM127.7,41.26c-4.51,3.48-7.4,7.28-9.03,10.27,5.89-4.04,17.07-11.83,23.04-17.35-5.81,1.76-10.42,4.31-14.01,7.08h0ZM119.62,53.39c.38-.02.76-.05,1.14-.09,7.05-.72,12.79-4.42,16.81-8.65,3.06-3.21,5.11-6.7,6-9.4-6.08,5.75-17.95,14.02-23.96,18.13h0ZM94.47,72.76l-.06-.08c-1.65-2.23-3.49-3.12-4.99-3.04-.57.03-1.1.21-1.53.52-.43.31-.78.74-1.02,1.28-.62,1.45-.42,3.63,1.18,6.23h0c.1.15.19.29.28.42.75,1.03,1.71,1.71,2.73,1.97.98.25,2.03.11,2.98-.5h0c.09-.05.19-.12.29-.2l.04-.03h0c1-.77,1.45-1.79,1.45-2.89,0-1.19-.49-2.48-1.37-3.68h0ZM108.03,91.26c1.43-.75,2.97-1.44,4.61-2.03,4.67-1.69,10.16-2.64,16.08-2.05-3.28-1.71-8.21-3.25-12.83-2.47-2.02.34-3.64,1.2-5.1,2.7-.96.99-1.86,2.27-2.77,3.86h0ZM130.34,89.51c-5.95-.76-12.35,0-17.01,1.68-1.85.67-3.55,1.46-5.1,2.31,15.27,3.63,12.07-1.76,22.1-3.99h0ZM112.07,71.89l-.08.06h0c-1.17.9-2,2.01-2.32,3.15-.3,1.05-.15,2.16.6,3.18h0s.03.04.03.04h0c.07.1.15.19.23.28.75.85,1.72,1.29,2.73,1.32,1.05.04,2.16-.35,3.16-1.12.13-.1.26-.21.39-.33,2.24-2.04,3.03-4.08,2.83-5.65-.07-.58-.29-1.1-.63-1.52-.33-.42-.79-.74-1.32-.93-1.42-.5-3.43-.16-5.62,1.51h0ZM87.35,100.29c-1.47-1.38-3.03-2.75-4.62-4.07-5.02-4.18-10.35-7.81-14.4-9.46,1.23,1.38,2.88,3.28,4.95,5.86,1.81,2.25,5,4.71,8.36,6.23,1.95.88,3.94,1.44,5.71,1.45h0ZM74.25,87.51c3.14,1.91,6.53,4.4,9.78,7.1,1.41,1.17,2.79,2.38,4.11,3.6-1.35-4.05-5.43-6.99-9.78-9.03-1.37-.64-2.77-1.2-4.12-1.67h0ZM104.29,68.17l-.03-.07h0c-.91-2.25-2.25-3.42-3.52-3.68-.48-.1-.95-.07-1.37.09-.42.15-.8.44-1.11.83-.83,1.08-1.14,2.96-.35,5.51.03.11.08.25.15.42.4,1.03,1.06,1.81,1.85,2.26.76.43,1.66.54,2.59.25.06-.02.16-.06.29-.11h0s.04-.01.04-.01h0c.99-.41,1.57-1.16,1.81-2.06.26-1,.12-2.2-.35-3.41h0ZM101.84,49.16c-.89-7.72-6.91-10.59-13.12-13.54-2.63-1.25-5.29-2.51-7.67-4.16,1.86,3.82,7.04,7.51,12.42,11.35,2.87,2.05,5.79,4.14,8.36,6.34h0Z"/>
        <g>
          <path class="cls-1" d="M0,149.7c28.31,8.77,47.69-9.55,71.34-10.28,13.2-.41,23.23,2.03,30.07,5.91-8.28-8.28-17.06-12.66-28.61-14.34-19.32-2.81-43.99,18.46-72.8,18.7h0Z"/>
          <path class="cls-1" d="M202.72,154.42c-2.17,1.67-4.78,2.55-7.81,2.64-60.41-1.3-123.7-1.3-189.88,0-1.45-.12-3.02-1.15-4.7-3.1,39.44.11,77.66-6.53,101.59-6.18,14.06.21,33.9,2.29,47.82,3.21,32.63,2.16,52.98,3.45,52.99,3.43h0Z"/>
          <path class="cls-1" d="M202.81,149.7c-28.31,8.77-47.69-9.55-71.34-10.28-13.2-.41-23.23,2.03-30.07,5.91,8.28-8.28,17.06-12.66,28.61-14.34,19.32-2.81,43.99,18.46,72.8,18.7h0Z"/>
        </g>
      </g>
    </g>
  </g>
</svg>