<?xml version="1.0" encoding="UTF-8"?>
<svg id="Layer_2" data-name="Layer 2" xmlns="http://www.w3.org/2000/svg" viewBox="0 0 1366.79 205.27">
  <defs>
    <style>
      .cls-1 {
        fill-rule: evenodd;
      }

      .cls-1, .cls-2 {
        fill: #fff;
      }
    </style>
  </defs>
  <g id="Layer_1-2" data-name="Layer 1">
    <g>
      <g>
        <path class="cls-2" d="M232.36,153.01L271.65,6.18h-15.38v-3.92h38.79l-40.2,150.75h-22.51ZM307.43,155.02c-5.36,0-9.55-1.29-12.56-3.87-3.01-2.58-4.52-6.01-4.52-10.3,0-1.21.17-2.6.5-4.17.33-1.57.74-3.2,1.21-4.87l11.86-41.31c1.61-5.43,2.68-9.93,3.22-13.52.54-3.58.38-6.28-.45-8.09-.84-1.81-2.56-2.71-5.18-2.71s-5.81,1.61-9.4,4.82c-3.58,3.22-7.29,7.6-11.11,13.17-3.82,5.56-7.4,11.96-10.75,19.2-3.35,7.24-6.13,14.87-8.34,22.91h-2.31c1.47-5.76,3.42-11.77,5.83-18.04,2.41-6.26,5.23-12.34,8.44-18.24,3.22-5.89,6.72-11.19,10.5-15.88,3.78-4.69,7.79-8.44,12.01-11.26,4.22-2.81,8.54-4.22,12.96-4.22,5.76,0,10.18,1.36,13.27,4.07,3.08,2.71,4.97,6.33,5.68,10.85.7,4.52.22,9.6-1.46,15.23l-14.97,52.46c-.13.47-.27,1.06-.4,1.76-.13.7-.2,1.32-.2,1.86,0,2.48,1.11,3.72,3.32,3.72,3.95,0,7.79-2.21,11.51-6.63s7.59-11.52,11.61-21.31l3.82,1.31c-3.15,7.91-6.37,14.29-9.65,19.15-3.28,4.86-6.9,8.39-10.85,10.6-3.95,2.21-8.48,3.32-13.57,3.32Z"/>
        <path class="cls-2" d="M383.61,155.02c-10.52,0-18.51-2.88-23.97-8.64-5.46-5.76-8.19-13.47-8.19-23.12,0-8.58,1.54-16.75,4.62-24.52,3.08-7.77,7.29-14.67,12.61-20.7,5.33-6.03,11.46-10.79,18.39-14.27,6.93-3.48,14.19-5.23,21.76-5.23,10.65,0,18.74,2.95,24.27,8.84,5.53,5.9,8.29,13.67,8.29,23.32,0,8.51-1.51,16.62-4.52,24.32-3.01,7.71-7.19,14.57-12.51,20.6-5.33,6.03-11.47,10.77-18.44,14.22-6.97,3.45-14.41,5.18-22.31,5.18ZM382.9,151.1c3.15,0,6.25-1.19,9.3-3.57,3.05-2.38,6-5.61,8.84-9.7,2.85-4.09,5.48-8.73,7.89-13.92,2.41-5.19,4.52-10.62,6.33-16.28,1.81-5.66,3.22-11.26,4.22-16.78,1.01-5.53,1.51-10.6,1.51-15.23,0-4.09-.92-7.29-2.76-9.6-1.84-2.31-4.74-3.47-8.69-3.47-3.01,0-6.06,1.19-9.15,3.57-3.08,2.38-6.05,5.61-8.89,9.7-2.85,4.09-5.48,8.73-7.89,13.92-2.41,5.19-4.52,10.62-6.33,16.28-1.81,5.66-3.22,11.22-4.22,16.68-1,5.46-1.51,10.57-1.51,15.33,0,3.95.92,7.12,2.76,9.5,1.84,2.38,4.71,3.57,8.59,3.57Z"/>
        <path class="cls-2" d="M451.94,153.01l21.81-88.54h-13.06v-3.92h36.18l-22.91,92.46h-22.01ZM505.21,153.01l15.48-61.91c2.08-8.64,3.28-15.02,3.62-19.15.33-4.12-1.14-6.18-4.42-6.18-3.08,0-6.48,1.68-10.2,5.03-3.72,3.35-7.44,7.89-11.16,13.62s-7.15,12.21-10.3,19.45c-3.15,7.24-5.7,14.71-7.64,22.41h-2.61c1.94-7.64,4.52-15.41,7.74-23.32,3.22-7.91,6.97-15.21,11.26-21.91,4.29-6.7,8.99-12.11,14.12-16.23,5.13-4.12,10.54-6.18,16.23-6.18s9.63,1.39,12.41,4.17c2.78,2.78,4.42,6.45,4.92,11,.5,4.56.08,9.55-1.26,14.97l-16.28,64.22h-21.91ZM576.77,155.02c-6.03,0-10.37-1.36-13.01-4.07-2.65-2.71-3.97-6.21-3.97-10.5,0-1.47.17-2.98.5-4.52.33-1.54.67-2.91,1.01-4.12l11.86-40.7c2.48-8.51,3.78-14.84,3.92-18.99.13-4.15-1.44-6.23-4.72-6.23-3.08,0-6.43,1.68-10.05,5.03-3.62,3.35-7.24,7.89-10.85,13.62s-6.95,12.2-10,19.4c-3.05,7.2-5.58,14.66-7.59,22.36h-2.61c2.01-7.64,4.56-15.43,7.64-23.37,3.08-7.94,6.68-15.26,10.8-21.96,4.12-6.7,8.69-12.09,13.72-16.18,5.02-4.09,10.45-6.13,16.28-6.13s10.47,1.39,13.32,4.17c2.85,2.78,4.44,6.45,4.77,11,.33,4.56-.3,9.55-1.91,14.97l-15.28,52.96c-.27.67-.45,1.39-.55,2.16-.1.77-.15,1.49-.15,2.16,0,.87.27,1.61.8,2.21.54.6,1.34.9,2.41.9,2.34,0,4.77-.89,7.29-2.66,2.51-1.77,5.09-4.76,7.74-8.94,2.65-4.19,5.41-9.83,8.29-16.93l3.82,1.31c-3.08,7.91-6.22,14.29-9.4,19.15-3.18,4.86-6.7,8.39-10.55,10.6-3.85,2.21-8.36,3.32-13.52,3.32Z"/>
        <path class="cls-2" d="M651.94,155.02c-6.9,0-12.7-1.39-17.39-4.17-4.69-2.78-8.22-6.6-10.6-11.46-2.38-4.86-3.57-10.37-3.57-16.53,0-8.04,1.49-15.88,4.47-23.52,2.98-7.64,7.14-14.54,12.46-20.7,5.33-6.16,11.54-11.05,18.64-14.67s14.74-5.43,22.91-5.43c8.58,0,15.24,1.96,20,5.88,4.76,3.92,7.14,8.76,7.14,14.52,0,5.09-1.66,9.72-4.97,13.87-3.32,4.15-7.92,7.71-13.82,10.65-5.9,2.95-12.71,5.31-20.45,7.09-7.74,1.78-16.03,2.93-24.87,3.47v-3.22c5.16-.33,10.02-1.31,14.57-2.91,4.56-1.61,8.68-3.68,12.36-6.23,3.68-2.55,6.88-5.44,9.6-8.69,2.71-3.25,4.79-6.68,6.23-10.3,1.44-3.62,2.16-7.27,2.16-10.96,0-2.48-.55-4.64-1.66-6.48-1.11-1.84-3-2.76-5.68-2.76-3.28,0-6.5,1.19-9.65,3.57-3.15,2.38-6.15,5.58-8.99,9.6-2.85,4.02-5.44,8.54-7.79,13.57-2.35,5.02-4.39,10.25-6.13,15.68s-3.08,10.72-4.02,15.88c-.94,5.16-1.41,9.85-1.41,14.07,0,5.63,1.32,9.55,3.97,11.76,2.65,2.21,6.01,3.32,10.1,3.32,4.82,0,9.5-1.06,14.02-3.17s8.76-5.04,12.71-8.79c3.95-3.75,7.5-8.11,10.65-13.06l3.42,2.21c-2.88,4.82-6.43,9.36-10.65,13.62-4.22,4.26-9.13,7.71-14.72,10.35-5.59,2.65-11.94,3.97-19.04,3.97Z"/>
        <path class="cls-2" d="M741.89,205.27c-9.45,0-17.2-1.04-23.27-3.12-6.06-2.08-10.54-4.94-13.42-8.59-2.88-3.65-4.32-7.79-4.32-12.41,0-3.62,1.05-7.02,3.17-10.2,2.11-3.18,4.89-5.96,8.34-8.34,3.45-2.38,7.12-4.26,11-5.63,3.88-1.37,7.6-2.06,11.16-2.06h4.72c-4.15.94-7.76,2.65-10.8,5.13-3.05,2.48-5.41,5.49-7.08,9.04-1.68,3.55-2.51,7.44-2.51,11.66,0,6.23,2.03,11.14,6.08,14.72,4.05,3.58,10.17,5.38,18.34,5.38,6.9,0,13.47-.82,19.7-2.46,6.23-1.64,11.77-3.9,16.63-6.78,4.86-2.88,8.66-6.28,11.41-10.2,2.75-3.92,4.12-8.16,4.12-12.71,0-3.89-1.19-6.67-3.57-8.34-2.38-1.68-5.65-2.51-9.8-2.51h-38.59c-6.03,0-11.36-.84-15.98-2.51-4.62-1.68-8.23-4.02-10.8-7.04-2.58-3.01-3.87-6.6-3.87-10.75,0-3.55,1-6.77,3.01-9.65,2.01-2.88,4.77-5.36,8.29-7.44,3.52-2.08,7.54-3.67,12.06-4.77s9.3-1.66,14.32-1.66l-.2,2.51c-6.37,0-11.26,1.29-14.67,3.87-3.42,2.58-5.13,5.28-5.13,8.09s.94,4.72,2.81,6.13c1.88,1.41,4.27,2.38,7.19,2.92s5.95.8,9.1.8c2.34,0,5.21-.02,8.59-.05,3.38-.03,6.72-.07,10-.1,3.28-.03,5.86-.05,7.74-.05,7.97,0,14.59,1.73,19.85,5.18,5.26,3.45,7.89,9.5,7.89,18.14,0,7.3-1.81,13.7-5.43,19.2-3.62,5.49-8.44,10.07-14.47,13.72-6.03,3.65-12.66,6.38-19.9,8.19-7.24,1.81-14.47,2.71-21.71,2.71ZM763.79,120.85c-6.17,0-11.66-1.11-16.48-3.32-4.82-2.21-8.63-5.36-11.41-9.45-2.78-4.09-4.17-8.98-4.17-14.67,0-6.43,1.94-12.28,5.83-17.54,3.88-5.26,9.03-9.45,15.43-12.56,6.4-3.12,13.35-4.67,20.85-4.67,6.1,0,11.56,1.17,16.38,3.52,4.82,2.35,8.63,5.64,11.41,9.9,2.78,4.26,4.17,9.23,4.17,14.92,0,6.37-1.94,12.11-5.83,17.24-3.89,5.13-9.01,9.18-15.38,12.16-6.37,2.98-13.3,4.47-20.8,4.47ZM761.58,116.93c2.28,0,4.57-.97,6.88-2.92,2.31-1.94,4.49-4.5,6.53-7.69,2.04-3.18,3.85-6.67,5.43-10.45,1.57-3.79,2.83-7.54,3.77-11.26.94-3.72,1.41-7.05,1.41-10,0-3.42-.77-6.28-2.31-8.59-1.54-2.31-3.99-3.47-7.34-3.47-2.28,0-4.57.96-6.88,2.86-2.31,1.91-4.49,4.46-6.53,7.64-2.04,3.18-3.85,6.67-5.43,10.45-1.58,3.79-2.83,7.54-3.77,11.26-.94,3.72-1.41,7.02-1.41,9.9,0,3.48.79,6.4,2.36,8.74,1.57,2.35,4,3.52,7.29,3.52ZM819.37,59.55c4.15,0,7.59,1.27,10.3,3.82,2.71,2.55,4.07,5.8,4.07,9.75,0,3.35-1.01,6.21-3.02,8.59-2.01,2.38-4.76,3.57-8.24,3.57-3.02,0-5.63-.99-7.84-2.96-2.21-1.97-3.32-4.64-3.32-7.99,0-2.55.85-4.71,2.56-6.48,1.71-1.77,3.73-2.86,6.08-3.27,1.47.27,2.85.8,4.12,1.61,1.27.8,2.28,1.91,3.02,3.32-.67-1.88-1.86-3.35-3.57-4.42-1.71-1.07-3.6-1.61-5.68-1.61-2.95,0-5.78.82-8.49,2.46-2.71,1.64-5.23,3.94-7.54,6.88-2.31,2.95-4.47,6.47-6.48,10.55l-2.81-1.61c3.55-7.44,7.54-13,11.96-16.68,4.42-3.68,9.38-5.53,14.87-5.53Z"/>
        <path class="cls-2" d="M836.45,153.01l22.31-88.54h-15.58v-3.92h37.49l-22.41,92.46h-21.81ZM863.09,123.56c1.21-5.43,2.73-11.14,4.57-17.14,1.84-6,4.02-11.81,6.53-17.44s5.31-10.74,8.39-15.33c3.08-4.59,6.45-8.24,10.1-10.95,3.65-2.71,7.55-4.07,11.71-4.07,4.69,0,8.46,1.32,11.31,3.97,2.85,2.65,4.27,6.08,4.27,10.3,0,3.89-1.19,7.19-3.57,9.9-2.38,2.71-5.51,4.07-9.4,4.07s-6.77-1.14-9.25-3.42c-2.48-2.28-3.72-5.23-3.72-8.84s1.21-6.6,3.62-8.95c2.41-2.34,5.56-3.52,9.45-3.52,3.68,0,6.72.92,9.1,2.76,2.38,1.84,3.57,4.51,3.57,7.99l-3.92-.1c0-3.08-1.02-5.58-3.07-7.49-2.04-1.91-4.84-2.86-8.39-2.86-3.82,0-7.42,1.32-10.8,3.97-3.38,2.65-6.52,6.2-9.4,10.65-2.88,4.46-5.53,9.36-7.94,14.72s-4.54,10.8-6.38,16.33c-1.84,5.53-3.33,10.67-4.47,15.43h-2.31Z"/>
        <path class="cls-2" d="M952.13,155.02c-10.52,0-18.51-2.88-23.97-8.64-5.46-5.76-8.19-13.47-8.19-23.12,0-8.58,1.54-16.75,4.62-24.52,3.08-7.77,7.29-14.67,12.61-20.7,5.33-6.03,11.46-10.79,18.39-14.27,6.93-3.48,14.19-5.23,21.76-5.23,10.65,0,18.74,2.95,24.27,8.84,5.53,5.9,8.29,13.67,8.29,23.32,0,8.51-1.51,16.62-4.52,24.32-3.02,7.71-7.19,14.57-12.51,20.6-5.33,6.03-11.47,10.77-18.44,14.22-6.97,3.45-14.41,5.18-22.31,5.18ZM951.42,151.1c3.15,0,6.25-1.19,9.3-3.57,3.05-2.38,6-5.61,8.84-9.7,2.85-4.09,5.48-8.73,7.89-13.92,2.41-5.19,4.52-10.62,6.33-16.28,1.81-5.66,3.22-11.26,4.22-16.78s1.51-10.6,1.51-15.23c0-4.09-.92-7.29-2.76-9.6-1.84-2.31-4.74-3.47-8.69-3.47-3.02,0-6.06,1.19-9.15,3.57-3.08,2.38-6.05,5.61-8.89,9.7-2.85,4.09-5.48,8.73-7.89,13.92-2.41,5.19-4.52,10.62-6.33,16.28-1.81,5.66-3.22,11.22-4.22,16.68-1,5.46-1.51,10.57-1.51,15.33,0,3.95.92,7.12,2.76,9.5,1.84,2.38,4.71,3.57,8.59,3.57Z"/>
        <path class="cls-2" d="M1042.38,155.02c-6.1,0-10.69-1.36-13.77-4.07-3.08-2.71-4.91-6.36-5.48-10.95-.57-4.59-.12-9.7,1.36-15.33l15.58-60.2h-12.96v-3.92h36.98l-16.68,62.41c-1.41,5.23-2.38,9.65-2.92,13.27-.54,3.62-.39,6.4.45,8.34.84,1.94,2.63,2.92,5.38,2.92,2.54,0,5.69-1.64,9.45-4.92,3.75-3.28,7.62-7.74,11.61-13.37,3.98-5.63,7.69-12.04,11.1-19.25,3.42-7.2,6.1-14.76,8.04-22.66h3.02c-1.41,5.7-3.37,11.67-5.88,17.94-2.51,6.27-5.43,12.35-8.74,18.24-3.32,5.9-6.93,11.22-10.85,15.98-3.92,4.76-8.04,8.54-12.36,11.36-4.32,2.81-8.76,4.22-13.32,4.22ZM1094.94,155.02c-5.96,0-10.37-1.36-13.21-4.07-2.85-2.71-4.27-5.91-4.27-9.6,0-1,.08-2.14.25-3.42.17-1.27.38-2.44.65-3.52l18.99-73.87h22.81l-21.91,81.51c-.13.6-.25,1.22-.35,1.86-.1.64-.15,1.19-.15,1.66,0,2.28,1.07,3.42,3.22,3.42,2.55,0,5.04-.89,7.49-2.66,2.45-1.77,4.97-4.74,7.59-8.89s5.39-9.75,8.34-16.78l3.72,1.31c-3.08,7.71-6.21,13.99-9.4,18.84-3.18,4.86-6.7,8.44-10.55,10.75-3.85,2.31-8.26,3.47-13.22,3.47Z"/>
        <path class="cls-2" d="M1136.24,153.01l23.42-88.54h-13.37v-3.92h36.88l-24.42,92.46h-22.51ZM1210.51,155.02c-5.76,0-10.05-1.22-12.86-3.67-2.81-2.45-4.22-5.98-4.22-10.6,0-1.41.17-2.92.5-4.52.33-1.61.64-2.95.9-4.02l12.86-41.71c1.61-5.16,2.66-9.56,3.17-13.22.5-3.65.3-6.42-.6-8.29-.91-1.88-2.7-2.81-5.38-2.81s-5.61,1.62-9.2,4.87c-3.58,3.25-7.27,7.69-11.05,13.32-3.79,5.63-7.35,12.04-10.7,19.25-3.35,7.2-6.1,14.76-8.24,22.66h-2.71c1.54-5.69,3.53-11.67,5.98-17.94,2.45-6.26,5.28-12.33,8.49-18.19,3.22-5.86,6.7-11.17,10.45-15.93,3.75-4.76,7.72-8.54,11.91-11.36,4.19-2.81,8.49-4.22,12.91-4.22,5.76,0,10.23,1.36,13.42,4.07,3.18,2.71,5.16,6.35,5.93,10.9.77,4.56.29,9.61-1.46,15.17l-15.68,52.46c-.13.54-.27,1.16-.4,1.86-.13.7-.2,1.32-.2,1.86,0,1.07.25,1.94.75,2.61.5.67,1.36,1,2.56,1,4.02,0,7.87-2.21,11.56-6.63,3.68-4.42,7.54-11.52,11.56-21.31l3.82,1.31c-3.15,7.91-6.37,14.29-9.65,19.15-3.28,4.86-6.9,8.39-10.85,10.6-3.95,2.21-8.48,3.32-13.57,3.32Z"/>
        <path class="cls-2" d="M1281.46,155.02c-9.04,0-15.65-2.95-19.8-8.84-4.16-5.89-6.23-13.83-6.23-23.82,0-7.7,1.44-15.33,4.32-22.86,2.88-7.54,6.73-14.39,11.56-20.55,4.82-6.16,10.17-11.11,16.03-14.82,5.86-3.72,11.74-5.58,17.64-5.58,4.42,0,8.02,1.14,10.8,3.42,2.78,2.28,4.81,5.43,6.08,9.45,1.27,4.02,1.91,8.64,1.91,13.87,0,3.89-.44,8.28-1.31,13.17-.87,4.89-2.16,9.95-3.87,15.17-1.71,5.23-3.79,10.3-6.23,15.23-2.45,4.92-5.24,9.35-8.39,13.27-3.15,3.92-6.6,7.05-10.35,9.4-3.75,2.34-7.81,3.52-12.16,3.52ZM1287.79,147.38c3.08,0,6.2-1.32,9.35-3.97,3.15-2.65,6.11-6.2,8.89-10.65,2.78-4.46,5.28-9.41,7.49-14.87,2.21-5.46,3.94-11.04,5.18-16.73,1.24-5.69,1.86-11.05,1.86-16.08,0-3.95-.37-7.37-1.11-10.25-.74-2.88-1.91-5.11-3.52-6.68-1.61-1.57-3.69-2.36-6.23-2.36-2.95,0-5.95,1.47-9,4.42-3.05,2.95-5.96,6.83-8.74,11.66-2.78,4.82-5.28,10.15-7.49,15.98s-3.95,11.66-5.23,17.49c-1.27,5.83-1.91,11.22-1.91,16.18s.87,9.09,2.61,11.81c1.74,2.71,4.35,4.07,7.84,4.07ZM1326.99,155.02c-5.56,0-9.65-1.36-12.26-4.07-2.61-2.71-3.92-6.35-3.92-10.9,0-.67.03-1.52.1-2.56.07-1.04.2-2.06.4-3.07l3.02-15.78,6.43-16.48.4-12.16,22.51-83.82h-16.18v-3.92h39.3l-37.29,140.1c-.27,1.07-.4,2.11-.4,3.12,0,.94.27,1.76.8,2.46.54.7,1.44,1.06,2.71,1.06,2.41,0,4.82-.89,7.24-2.66,2.41-1.77,4.92-4.74,7.54-8.89s5.39-9.75,8.34-16.78l3.82,1.31c-3.08,7.71-6.21,13.99-9.4,18.84-3.18,4.86-6.63,8.44-10.35,10.75s-7.99,3.47-12.81,3.47Z"/>
      </g>
      <g>
        <path class="cls-2" d="M80.78,34.83c1.03,4.61,3.59,7.97,6.6,10.4,2.67,2.14,5.71,3.57,8.4,4.48,1.92.65,3.65,1.03,4.93,1.23-2.54-2.22-5.51-4.33-8.42-6.41-4.51-3.22-8.89-6.34-11.52-9.7h0ZM94.57,76.26c-.06.72-.39,1.38-1.05,1.89l-.03.02-.22.15c-.7.45-1.47.55-2.18.37-.75-.19-1.45-.69-2-1.44l-.21-.31c-1.17-1.9-1.32-3.5-.86-4.56.03-.07.07-.14.1-.21-.11.99.19,2.26,1.08,3.7l.21.31c.55.75,1.25,1.25,2,1.44.72.18,1.48.08,2.18-.37l.22-.15.03-.02c.32-.24.56-.52.73-.83h0ZM103.87,71.05c-.18.71-.64,1.29-1.41,1.61h-.03s-.23.1-.23.1c-.72.23-1.42.14-2.02-.19-.62-.35-1.13-.96-1.45-1.76l-.12-.32c-.61-1.99-.37-3.46.28-4.3.02-.03.05-.06.07-.09-.2.82-.16,1.9.24,3.19l.12.32c.32.8.83,1.41,1.45,1.76.59.33,1.3.42,2.02.19l.23-.08h.03c.35-.16.64-.36.87-.61-.01.06-.03.12-.04.18h0ZM116.1,78.13c-.82.64-1.74.95-2.6.92-.83-.03-1.63-.39-2.25-1.09l-.18-.23-.03-.04c-.62-.84-.74-1.75-.5-2.61.04-.14.09-.27.14-.41.04.53.24,1.05.6,1.56l.03.04.18.23c.62.7,1.42,1.06,2.25,1.09.86.03,1.78-.28,2.6-.92l.32-.27c1.1-1,1.77-1.99,2.1-2.91.05,1.25-.63,2.81-2.35,4.37l-.32.27h0ZM113.87,35.89c.47,14.25-3.39,26.17-7.27,38.17-1.03,3.18-2.06,6.37-3.01,9.6,1.44-1.84,3.06-3.74,4.4-5.22-.59-1.28-.65-2.62-.28-3.91.45-1.58,1.54-3.06,3.05-4.24h0s.08-.06.08-.06h0c2.81-2.14,5.52-2.53,7.53-1.82.91.32,1.68.87,2.25,1.58.57.71.94,1.59,1.07,2.57.28,2.18-.69,4.91-3.5,7.47-.16.15-.33.29-.51.43-1.38,1.08-2.96,1.61-4.48,1.55-1.47-.05-2.88-.65-4-1.82-1.72,1.91-3.81,4.42-5.36,6.56-.85,1.17-1.53,2.19-1.86,2.84-.23.93-.45,1.86-.66,2.81-.05.36-.12.7-.22,1.02-.14.64-.27,1.29-.39,1.94-.09.46-.17.91-.25,1.36,1.14-1.15,2.57-2.33,4.24-3.46,1.53-3.21,3-5.6,4.66-7.31,1.78-1.83,3.75-2.88,6.22-3.3,6.17-1.04,12.78,1.62,16.1,3.86.8.54,1.43,1.06,1.84,1.53.65.73.87,1.46.57,2.09-.23.48-.68.78-1.37.84-11.18,2.21-7.17,9.28-26.97,4.06-2.91,1.97-4.97,4.08-5.93,5.8-.65,4.86-.93,10.74-.66,15.72.36,6.53,1.5,12.79,3.12,19.59.13.56-.21,1.12-.76,1.25-.55.13-1.1-.21-1.23-.77-1.65-6.93-2.81-13.3-3.18-19.96-.05-.84-.08-1.69-.1-2.54-.05-1.99-.63-3.69-1.81-5.29-1.49-2.02-3.53-4.31-5.88-6.64-2.57.55-5.61-.13-8.5-1.43-3.65-1.65-7.12-4.33-9.11-6.82-2.63-3.28-4.58-5.45-5.83-6.83-1.5-1.66-2.2-2.45-1.83-3.27.19-.41.54-.62,1.04-.62.53,0,2.55.28,5.17.94,2.59.65,5.84,1.67,8.97,3.14,5.79,2.72,11.15,6.97,11.42,13.32,2.58,2.56,4.83,5.09,6.44,7.33.21-4.06.72-8.34,1.6-12.98.19-.99.39-1.98.61-2.95.18-1.49-.2-3.46-1.01-5.43-.78-1.9-1.93-3.76-3.33-5.14-1.41.83-2.94,1.01-4.38.64-1.47-.38-2.84-1.33-3.88-2.75-.14-.19-.26-.37-.37-.55h0c-2-3.25-2.19-6.14-1.32-8.16.39-.91.99-1.64,1.73-2.17.74-.52,1.63-.83,2.59-.89,2.07-.12,4.5.97,6.58,3.67-.92-3.17-.42-5.65.77-7.18.55-.71,1.24-1.21,2.02-1.5.78-.29,1.62-.35,2.48-.17,1.88.39,3.81,1.97,5.01,4.93h0s.03.08.03.08h0c.07.18.14.36.19.54.37-1.17.73-2.34,1.07-3.51.83-3.68-.66-7-3.34-10.11-.61-.71-1.39-1.1-2.32-1.16-1.38-.09-3.85-.51-6.68-1.46-2.87-.97-6.13-2.51-9.02-4.83-4.66-3.74-8.32-9.49-7.83-18.15h0c.01-.23.1-.45.26-.64.38-.43,1.03-.46,1.45-.08,2.68,2.46,6.17,4.11,9.6,5.74,7.33,3.48,14.42,6.86,14.41,17.4,2.33,2.29,4.18,4.73,5.11,7.38,1.78-7.06,2.97-14.41,2.71-22.47-.03-.87-.5-1.6-1.28-1.97-.87-.42-1.89-.94-2.26-1.14-4.73-2.54-7.7-6.86-9.28-11.77-1.99-6.18-1.77-13.32-.12-19.02.02-.35.08-.66.16-.92.12-.37.3-.67.54-.91.4-.41,1.05-.41,1.45,0,.11.11.19.24.24.38,1.09,2.76,3.37,5.66,5.75,8.69,5.02,6.38,10.5,13.35,7.65,21.84-.8,2.38-.89,2.13-.81,4.67h0ZM100.56,86.82c1.04-3.89,2.23-7.67,3.44-11.43-.13.06-.26.12-.39.18h0s-.04.02-.04.02h0c-.11.05-.26.1-.44.16-1.49.47-2.95.29-4.18-.4-.52-.29-.99-.67-1.41-1.12.24.74.37,1.49.37,2.22,0,1.34-.42,2.61-1.34,3.67,1.53,1.57,2.79,3.6,3.63,5.67.14.34.27.68.38,1.03h0ZM112.52,31.12c2.9-7.74-2.31-14.37-7.09-20.44-1.57-1.99-3.09-3.92-4.3-5.84.66,3.16,2.48,7.99,4.55,12.75,2.45,5.62,5.22,11.05,6.83,13.53h0ZM99.84,7.82c-.47,4.16-.19,8.65,1.11,12.7,1.56,4.84,4.58,9.02,9.51,11.17-1.77-2.88-4.38-8.01-6.66-13.26-1.6-3.69-3.06-7.46-3.96-10.61h0ZM115.34,54.05c1.03-3.29,4.39-9.27,11.12-14.46,4.51-3.47,10.53-6.62,18.4-8.4.55-.12,1.1.23,1.22.79,0,.04.02.08.02.12h0c.03.32.03.68,0,1.05-.23,3.17-2.72,8.38-7.06,12.94-4.32,4.54-10.48,8.5-18.09,9.28-1.52.16-3.1.18-4.73.06-.56-.04-.99-.54-.95-1.12,0-.09.03-.19.06-.27h0ZM127.7,41.26c-4.51,3.48-7.4,7.28-9.03,10.27,5.89-4.04,17.07-11.83,23.04-17.35-5.81,1.76-10.42,4.31-14.01,7.08h0ZM119.62,53.39c.38-.02.76-.05,1.14-.09,7.05-.72,12.79-4.42,16.81-8.65,3.06-3.21,5.11-6.7,6-9.4-6.08,5.75-17.95,14.02-23.96,18.13h0ZM94.47,72.76l-.06-.08c-1.65-2.23-3.49-3.12-4.99-3.04-.57.03-1.1.21-1.53.52-.43.31-.78.74-1.02,1.28-.62,1.45-.42,3.63,1.18,6.23h0c.1.15.19.29.28.42.75,1.03,1.71,1.71,2.73,1.97.98.25,2.03.11,2.98-.5h0c.09-.05.19-.12.29-.2l.04-.03h0c1-.77,1.45-1.79,1.45-2.89,0-1.19-.49-2.48-1.37-3.68h0ZM108.03,91.26c1.43-.75,2.97-1.44,4.61-2.03,4.67-1.69,10.16-2.64,16.08-2.05-3.28-1.71-8.21-3.25-12.83-2.47-2.02.34-3.64,1.2-5.1,2.7-.96.99-1.86,2.27-2.77,3.86h0ZM130.34,89.51c-5.95-.76-12.35,0-17.01,1.68-1.85.67-3.55,1.46-5.1,2.31,15.27,3.63,12.07-1.76,22.1-3.99h0ZM112.07,71.89l-.08.06h0c-1.17.9-2,2.01-2.32,3.15-.3,1.05-.15,2.16.6,3.18h0s.03.04.03.04h0c.07.1.15.19.23.28.75.85,1.72,1.29,2.73,1.32,1.05.04,2.16-.35,3.16-1.12.13-.1.26-.21.39-.33,2.24-2.04,3.03-4.08,2.83-5.65-.07-.58-.29-1.1-.63-1.52-.33-.42-.79-.74-1.32-.93-1.42-.5-3.43-.16-5.62,1.51h0ZM87.35,100.29c-1.47-1.38-3.03-2.75-4.62-4.07-5.02-4.18-10.35-7.81-14.4-9.46,1.23,1.38,2.88,3.28,4.95,5.86,1.81,2.25,5,4.71,8.36,6.23,1.95.88,3.94,1.44,5.71,1.45h0ZM74.25,87.51c3.14,1.91,6.53,4.4,9.78,7.1,1.41,1.17,2.79,2.38,4.11,3.6-1.35-4.05-5.43-6.99-9.78-9.03-1.37-.64-2.77-1.2-4.12-1.67h0ZM104.29,68.17l-.03-.07h0c-.91-2.25-2.25-3.42-3.52-3.68-.48-.1-.95-.07-1.37.09-.42.15-.8.44-1.11.83-.83,1.08-1.14,2.96-.35,5.51.03.11.08.25.15.42.4,1.03,1.06,1.81,1.85,2.26.76.43,1.66.54,2.59.25.06-.02.16-.06.29-.11h0s.04-.01.04-.01h0c.99-.41,1.57-1.16,1.81-2.06.26-1,.12-2.2-.35-3.41h0ZM101.84,49.16c-.89-7.72-6.91-10.59-13.12-13.54-2.63-1.25-5.29-2.51-7.67-4.16,1.86,3.82,7.04,7.51,12.42,11.35,2.87,2.05,5.79,4.14,8.36,6.34h0Z"/>
        <g>
          <path class="cls-1" d="M0,149.7c28.31,8.77,47.69-9.55,71.34-10.28,13.2-.41,23.23,2.03,30.07,5.91-8.28-8.28-17.06-12.66-28.61-14.34-19.32-2.81-43.99,18.46-72.8,18.7h0Z"/>
          <path class="cls-1" d="M202.72,154.42c-2.17,1.67-4.78,2.55-7.81,2.64-60.41-1.3-123.7-1.3-189.88,0-1.45-.12-3.02-1.15-4.7-3.1,39.44.11,77.66-6.53,101.59-6.18,14.06.21,33.9,2.29,47.82,3.21,32.63,2.16,52.98,3.45,52.99,3.43h0Z"/>
          <path class="cls-1" d="M202.81,149.7c-28.31,8.77-47.69-9.55-71.34-10.28-13.2-.41-23.23,2.03-30.07,5.91,8.28-8.28,17.06-12.66,28.61-14.34,19.32-2.81,43.99,18.46,72.8,18.7h0Z"/>
        </g>
      </g>
    </g>
  </g>
</svg>