<?xml version="1.0" encoding="UTF-8"?>
<svg id="Layer_2" data-name="Layer 2" xmlns="http://www.w3.org/2000/svg" viewBox="0 0 1396.98 238.49">
  <defs>
    <style>
      .cls-1 {
        fill-rule: evenodd;
      }

      .cls-1, .cls-2, .cls-3 {
        fill: #fff;
      }

      .cls-4 {
        letter-spacing: -.04em;
      }

      .cls-3 {
        font-family: BodoniModaItalic-SemiBoldItalic, 'Bodoni Moda';
        font-size: 201px;
        font-style: italic;
        font-variation-settings: 'wght' 600, 'opsz' 11;
        font-weight: 600;
      }
    </style>
  </defs>
  <g id="Layer_1-2" data-name="Layer 1">
    <g>
      <text class="cls-3" transform="translate(229.84 175.88)"><tspan x="0" y="0">homeg</tspan><tspan class="cls-4" x="603.39" y="0">r</tspan><tspan x="684.29" y="0">ound</tspan></text>
      <g>
        <path class="cls-2" d="M80.78,57.69c1.03,4.61,3.59,7.97,6.6,10.4,2.67,2.14,5.71,3.57,8.4,4.48,1.92.65,3.65,1.03,4.93,1.23-2.54-2.22-5.51-4.33-8.42-6.41-4.51-3.22-8.89-6.34-11.52-9.7h0ZM94.57,99.13c-.06.72-.39,1.38-1.05,1.89l-.03.02-.22.15c-.7.45-1.47.55-2.18.37-.75-.19-1.45-.69-2-1.44l-.21-.31c-1.17-1.9-1.32-3.5-.86-4.56.03-.07.07-.14.1-.21-.11.99.19,2.26,1.08,3.7l.21.31c.55.75,1.25,1.25,2,1.44.72.18,1.48.08,2.18-.37l.22-.15.03-.02c.32-.24.56-.52.73-.83h0ZM103.87,93.92c-.18.71-.64,1.29-1.41,1.61h-.03s-.23.1-.23.1c-.72.23-1.42.14-2.02-.19-.62-.35-1.13-.96-1.45-1.76l-.12-.32c-.61-1.99-.37-3.46.28-4.3.02-.03.05-.06.07-.09-.2.82-.16,1.9.24,3.19l.12.32c.32.8.83,1.41,1.45,1.76.59.33,1.3.42,2.02.19l.23-.08h.03c.35-.16.64-.36.87-.61-.01.06-.03.12-.04.18h0ZM116.1,101c-.82.64-1.74.95-2.6.92-.83-.03-1.63-.39-2.25-1.09l-.18-.23-.03-.04c-.62-.84-.74-1.75-.5-2.61.04-.14.09-.27.14-.41.04.53.24,1.05.6,1.56l.03.04.18.23c.62.7,1.42,1.06,2.25,1.09.86.03,1.78-.28,2.6-.92l.32-.27c1.1-1,1.77-1.99,2.1-2.91.05,1.25-.63,2.81-2.35,4.37l-.32.27h0ZM113.87,58.75c.47,14.25-3.39,26.17-7.27,38.17-1.03,3.18-2.06,6.37-3.01,9.6,1.44-1.84,3.06-3.74,4.4-5.22-.59-1.28-.65-2.62-.28-3.91.45-1.58,1.54-3.06,3.05-4.24h0s.08-.06.08-.06h0c2.81-2.14,5.52-2.53,7.53-1.82.91.32,1.68.87,2.25,1.58.57.71.94,1.59,1.07,2.57.28,2.18-.69,4.91-3.5,7.47-.16.15-.33.29-.51.43-1.38,1.08-2.96,1.61-4.48,1.55-1.47-.05-2.88-.65-4-1.82-1.72,1.91-3.81,4.42-5.36,6.56-.85,1.17-1.53,2.19-1.86,2.84-.23.93-.45,1.86-.66,2.81-.05.36-.12.7-.22,1.02-.14.64-.27,1.29-.39,1.94-.09.46-.17.91-.25,1.36,1.14-1.15,2.57-2.33,4.24-3.46,1.53-3.21,3-5.6,4.66-7.31,1.78-1.83,3.75-2.88,6.22-3.3,6.17-1.04,12.78,1.62,16.1,3.86.8.54,1.43,1.06,1.84,1.53.65.73.87,1.46.57,2.09-.23.48-.68.78-1.37.84-11.18,2.21-7.17,9.28-26.97,4.06-2.91,1.97-4.97,4.08-5.93,5.8-.65,4.86-.93,10.74-.66,15.72.36,6.53,1.5,12.79,3.12,19.59.13.56-.21,1.12-.76,1.25-.55.13-1.1-.21-1.23-.77-1.65-6.93-2.81-13.3-3.18-19.96-.05-.84-.08-1.69-.1-2.54-.05-1.99-.63-3.69-1.81-5.29-1.49-2.02-3.53-4.31-5.88-6.64-2.57.55-5.61-.13-8.5-1.43-3.65-1.65-7.12-4.33-9.11-6.82-2.63-3.28-4.58-5.45-5.83-6.83-1.5-1.66-2.2-2.45-1.83-3.27.19-.41.54-.62,1.04-.62.53,0,2.55.28,5.17.94,2.59.65,5.84,1.67,8.97,3.14,5.79,2.72,11.15,6.97,11.42,13.32,2.58,2.56,4.83,5.09,6.44,7.33.21-4.06.72-8.34,1.6-12.98.19-.99.39-1.98.61-2.95.18-1.49-.2-3.46-1.01-5.43-.78-1.9-1.93-3.76-3.33-5.14-1.41.83-2.94,1.01-4.38.64-1.47-.38-2.84-1.33-3.88-2.75-.14-.19-.26-.37-.37-.55h0c-2-3.25-2.19-6.14-1.32-8.16.39-.91.99-1.64,1.73-2.17.74-.52,1.63-.83,2.59-.89,2.07-.12,4.5.97,6.58,3.67-.92-3.17-.42-5.65.77-7.18.55-.71,1.24-1.21,2.02-1.5.78-.29,1.62-.35,2.48-.17,1.88.39,3.81,1.97,5.01,4.93h0s.03.08.03.08h0c.07.18.14.36.19.54.37-1.17.73-2.34,1.07-3.51.83-3.68-.66-7-3.34-10.11-.61-.71-1.39-1.1-2.32-1.16-1.38-.09-3.85-.51-6.68-1.46-2.87-.97-6.13-2.51-9.02-4.83-4.66-3.74-8.32-9.49-7.83-18.15h0c.01-.23.1-.45.26-.64.38-.43,1.03-.46,1.45-.08,2.68,2.46,6.17,4.11,9.6,5.74,7.33,3.48,14.42,6.86,14.41,17.4,2.33,2.29,4.18,4.73,5.11,7.38,1.78-7.06,2.97-14.41,2.71-22.47-.03-.87-.5-1.6-1.28-1.97-.87-.42-1.89-.94-2.26-1.14-4.73-2.54-7.7-6.86-9.28-11.77-1.99-6.18-1.77-13.32-.12-19.02.02-.35.08-.66.16-.92.12-.37.3-.67.54-.91.4-.41,1.05-.41,1.45,0,.11.11.19.24.24.38,1.09,2.76,3.37,5.66,5.75,8.69,5.02,6.38,10.5,13.35,7.65,21.84-.8,2.38-.89,2.13-.81,4.67h0ZM100.56,109.68c1.04-3.89,2.23-7.67,3.44-11.43-.13.06-.26.12-.39.18h0s-.04.02-.04.02h0c-.11.05-.26.1-.44.16-1.49.47-2.95.29-4.18-.4-.52-.29-.99-.67-1.41-1.12.24.74.37,1.49.37,2.22,0,1.34-.42,2.61-1.34,3.67,1.53,1.57,2.79,3.6,3.63,5.67.14.34.27.68.38,1.03h0ZM112.52,53.98c2.9-7.74-2.31-14.37-7.09-20.44-1.57-1.99-3.09-3.92-4.3-5.84.66,3.16,2.48,7.99,4.55,12.75,2.45,5.62,5.22,11.05,6.83,13.53h0ZM99.84,30.69c-.47,4.16-.19,8.65,1.11,12.7,1.56,4.84,4.58,9.02,9.51,11.17-1.77-2.88-4.38-8.01-6.66-13.26-1.6-3.69-3.06-7.46-3.96-10.61h0ZM115.34,76.92c1.03-3.29,4.39-9.27,11.12-14.46,4.51-3.47,10.53-6.62,18.4-8.4.55-.12,1.1.23,1.22.79,0,.04.02.08.02.12h0c.03.32.03.68,0,1.05-.23,3.17-2.72,8.38-7.06,12.94-4.32,4.54-10.48,8.5-18.09,9.28-1.52.16-3.1.18-4.73.06-.56-.04-.99-.54-.95-1.12,0-.09.03-.19.06-.27h0ZM127.7,64.12c-4.51,3.48-7.4,7.28-9.03,10.27,5.89-4.04,17.07-11.83,23.04-17.35-5.81,1.76-10.42,4.31-14.01,7.08h0ZM119.62,76.26c.38-.02.76-.05,1.14-.09,7.05-.72,12.79-4.42,16.81-8.65,3.06-3.21,5.11-6.7,6-9.4-6.08,5.75-17.95,14.02-23.96,18.13h0ZM94.47,95.62l-.06-.08c-1.65-2.23-3.49-3.12-4.99-3.04-.57.03-1.1.21-1.53.52-.43.31-.78.74-1.02,1.28-.62,1.45-.42,3.63,1.18,6.23h0c.1.15.19.29.28.42.75,1.03,1.71,1.71,2.73,1.97.98.25,2.03.11,2.98-.5h0c.09-.05.19-.12.29-.2l.04-.03h0c1-.77,1.45-1.79,1.45-2.89,0-1.19-.49-2.48-1.37-3.68h0ZM108.03,114.13c1.43-.75,2.97-1.44,4.61-2.03,4.67-1.69,10.16-2.64,16.08-2.05-3.28-1.71-8.21-3.25-12.83-2.47-2.02.34-3.64,1.2-5.1,2.7-.96.99-1.86,2.27-2.77,3.86h0ZM130.34,112.37c-5.95-.76-12.35,0-17.01,1.68-1.85.67-3.55,1.46-5.1,2.31,15.27,3.63,12.07-1.76,22.1-3.99h0ZM112.07,94.76l-.08.06h0c-1.17.9-2,2.01-2.32,3.15-.3,1.05-.15,2.16.6,3.18h0s.03.04.03.04h0c.07.1.15.19.23.28.75.85,1.72,1.29,2.73,1.32,1.05.04,2.16-.35,3.16-1.12.13-.1.26-.21.39-.33,2.24-2.04,3.03-4.08,2.83-5.65-.07-.58-.29-1.1-.63-1.52-.33-.42-.79-.74-1.32-.93-1.42-.5-3.43-.16-5.62,1.51h0ZM87.35,123.16c-1.47-1.38-3.03-2.75-4.62-4.07-5.02-4.18-10.35-7.81-14.4-9.46,1.23,1.38,2.88,3.28,4.95,5.86,1.81,2.25,5,4.71,8.36,6.23,1.95.88,3.94,1.44,5.71,1.45h0ZM74.25,110.38c3.14,1.91,6.53,4.4,9.78,7.1,1.41,1.17,2.79,2.38,4.11,3.6-1.35-4.05-5.43-6.99-9.78-9.03-1.37-.64-2.77-1.2-4.12-1.67h0ZM104.29,91.03l-.03-.07h0c-.91-2.25-2.25-3.42-3.52-3.68-.48-.1-.95-.07-1.37.09-.42.15-.8.44-1.11.83-.83,1.08-1.14,2.96-.35,5.51.03.11.08.25.15.42.4,1.03,1.06,1.81,1.85,2.26.76.43,1.66.54,2.59.25.06-.02.16-.06.29-.11h0s.04-.01.04-.01h0c.99-.41,1.57-1.16,1.81-2.06.26-1,.12-2.2-.35-3.41h0ZM101.84,72.03c-.89-7.72-6.91-10.59-13.12-13.54-2.63-1.25-5.29-2.51-7.67-4.16,1.86,3.82,7.04,7.51,12.42,11.35,2.87,2.05,5.79,4.14,8.36,6.34h0Z"/>
        <g>
          <path class="cls-1" d="M0,172.57c28.31,8.77,47.69-9.55,71.34-10.28,13.2-.41,23.23,2.03,30.07,5.91-8.28-8.28-17.06-12.66-28.61-14.34-19.32-2.81-43.99,18.46-72.8,18.7h0Z"/>
          <path class="cls-1" d="M202.72,177.28c-2.17,1.67-4.78,2.55-7.81,2.64-60.41-1.3-123.7-1.3-189.88,0-1.45-.12-3.02-1.15-4.7-3.1,39.44.11,77.66-6.53,101.59-6.18,14.06.21,33.9,2.29,47.82,3.21,32.63,2.16,52.98,3.45,52.99,3.43h0Z"/>
          <path class="cls-1" d="M202.81,172.57c-28.31,8.77-47.69-9.55-71.34-10.28-13.2-.41-23.23,2.03-30.07,5.91,8.28-8.28,17.06-12.66,28.61-14.34,19.32-2.81,43.99,18.46,72.8,18.7h0Z"/>
        </g>
      </g>
    </g>
  </g>
</svg>